# Blender v2.78 (sub 0) OBJ File: 'bathroomsink.blend'
# www.blender.org
mtllib bathroomsink2.mtl
o Cube
v -0.020810 0.084271 -0.211423
v -0.020810 0.248099 -0.211423
v 0.020810 0.084271 -0.211423
v 0.020810 0.248099 -0.211423
v 0.041620 0.084271 -0.175379
v 0.041620 0.248099 -0.175379
v 0.020810 0.084271 -0.139335
v 0.020810 0.248099 -0.139335
v -0.020810 0.084271 -0.139335
v -0.020810 0.248099 -0.139335
v -0.041620 0.084271 -0.175379
v -0.041620 0.248099 -0.175379
v -0.300000 -0.090000 0.230000
v -0.300000 -0.080000 0.240000
v -0.310000 -0.080000 0.230000
v -0.300000 0.080000 0.240000
v -0.300000 0.090000 0.230000
v -0.310000 0.080000 0.230000
v -0.300000 -0.090000 -0.230000
v -0.310000 -0.080000 -0.230000
v -0.300000 -0.080000 -0.240000
v -0.300000 0.090000 -0.230000
v -0.300000 0.080000 -0.240000
v -0.310000 0.080000 -0.230000
v 0.300000 -0.090000 0.230000
v 0.310000 -0.080000 0.230000
v 0.300000 -0.080000 0.240000
v 0.300000 0.090000 0.230000
v 0.300000 0.080000 0.240000
v 0.310000 0.080000 0.230000
v 0.300000 -0.090000 -0.230000
v 0.300000 -0.080000 -0.240000
v 0.310000 -0.080000 -0.230000
v 0.300000 0.090000 -0.230000
v 0.310000 0.080000 -0.230000
v 0.300000 0.080000 -0.240000
v -0.219508 0.090000 0.197582
v -0.219508 0.090000 -0.122551
v 0.219508 0.090000 -0.122551
v 0.219508 0.090000 0.197582
v -0.192552 0.060001 0.177926
v -0.192552 0.060001 -0.102895
v 0.192552 0.060001 -0.102895
v 0.192552 0.060001 0.177926
v -0.138591 0.023263 0.138578
v -0.138591 0.023263 -0.063546
v 0.138591 0.023263 -0.063546
v 0.138591 0.023263 0.138578
v -0.012749 0.078982 -0.115331
v 0.012749 0.078982 -0.115331
v -0.012633 0.071020 -0.110114
v 0.012633 0.071020 -0.110114
v -0.014560 0.079547 -0.220787
v 0.014560 0.079547 -0.220787
v -0.014427 0.070454 -0.214829
v 0.014427 0.070454 -0.214829
v -0.009025 0.024392 0.021884
v -0.018050 0.024392 0.037516
v -0.009025 0.024392 0.053147
v 0.009025 0.024392 0.053147
v 0.018050 0.024392 0.037516
v 0.009025 0.024392 0.021884
v -0.012980 0.024392 0.015034
v -0.025960 0.024392 0.037516
v -0.012980 0.024392 0.059998
v 0.012980 0.024392 0.059998
v 0.025960 0.024392 0.037516
v 0.012980 0.024392 0.015034
v -0.009025 0.017933 0.021884
v -0.018050 0.017933 0.037516
v -0.009025 0.017933 0.053147
v 0.009025 0.017933 0.053147
v 0.018050 0.017933 0.037516
v 0.009025 0.017933 0.021884
v -0.012980 0.017933 0.015034
v -0.025960 0.017933 0.037516
v -0.012980 0.017933 0.059998
v 0.012980 0.017933 0.059998
v 0.025960 0.017933 0.037516
v 0.012980 0.017933 0.015034
v -0.009025 0.023451 0.021884
v -0.018050 0.023451 0.037516
v -0.009025 0.023451 0.053147
v 0.009025 0.023451 0.053147
v 0.018050 0.023451 0.037516
v 0.009025 0.023451 0.021884
v 0.000000 0.023451 0.037516
v 0.011284 0.076123 -0.111482
v 0.005642 0.067816 -0.106336
v -0.005642 0.067816 -0.106336
v -0.011284 0.076123 -0.111482
v -0.005642 0.084430 -0.116628
v 0.005642 0.084430 -0.116628
v -0.008114 0.088071 -0.118883
v -0.016229 0.076123 -0.111482
v -0.008114 0.064175 -0.104081
v 0.008114 0.064175 -0.104081
v 0.016229 0.076123 -0.111482
v 0.008114 0.088070 -0.118883
v -0.005642 0.082304 -0.120061
v -0.011284 0.073996 -0.114915
v -0.005642 0.065689 -0.109769
v 0.005642 0.065689 -0.109769
v 0.011284 0.073996 -0.114915
v 0.005642 0.082304 -0.120061
v -0.008114 0.085944 -0.122316
v -0.016229 0.073996 -0.114915
v -0.008114 0.062049 -0.107514
v 0.008114 0.062049 -0.107514
v 0.016229 0.073996 -0.114915
v 0.008114 0.085944 -0.122316
v -0.005642 0.084120 -0.117129
v -0.011284 0.075813 -0.111982
v -0.005642 0.067506 -0.106836
v 0.005642 0.067506 -0.106836
v 0.011284 0.075813 -0.111982
v 0.005642 0.084120 -0.117129
v 0.000000 0.075813 -0.111982
v -0.034988 -0.049332 0.037516
v 0.017494 -0.049332 0.067816
v 0.034988 -0.049332 0.037516
v 0.017494 -0.049332 0.007215
v -0.017494 -0.393615 0.007215
v 0.017494 -0.393615 0.067816
v 0.034988 -0.393615 0.037516
v 0.017494 -0.393615 0.007215
v -0.009141 0.241309 -0.145380
v -0.009141 0.241309 -0.010308
v 0.009141 0.241309 -0.145380
v 0.009141 0.241309 -0.010308
v 0.018282 0.225476 -0.145380
v 0.018282 0.225476 -0.010308
v 0.009141 0.209644 -0.145380
v 0.009141 0.209644 -0.010308
v -0.009141 0.209644 -0.145380
v -0.009141 0.209644 -0.010308
v -0.018282 0.225476 -0.145380
v -0.018282 0.225476 -0.010308
v -0.017006 0.252914 -0.204834
v 0.017006 0.252914 -0.204834
v 0.034012 0.252914 -0.175379
v 0.017006 0.252914 -0.145923
v -0.017006 0.252914 -0.145923
v -0.034012 0.252914 -0.175379
v -0.000000 0.252914 -0.175379
v -0.007864 0.239097 -0.007201
v -0.000000 0.084271 -0.175379
v -0.017494 -0.049332 0.067816
v -0.017494 -0.049332 0.007215
v -0.034988 -0.393615 0.037516
v -0.017494 -0.393615 0.067816
v 0.000000 -0.049332 0.037516
v 0.007864 0.239097 -0.007201
v 0.015728 0.225476 -0.007201
v 0.007864 0.211856 -0.007201
v -0.007864 0.211856 -0.007201
v -0.015728 0.225476 -0.007201
v -0.000000 0.225476 -0.007201
v 0.000000 -0.393615 0.037516
v -0.045212 -0.263689 0.037516
v 0.022606 -0.263689 0.076670
v 0.045212 -0.263689 0.037516
v 0.022606 -0.263689 -0.001639
v -0.022606 -0.415627 -0.001639
v 0.022606 -0.415627 0.076670
v 0.045212 -0.415627 0.037516
v 0.022606 -0.415627 -0.001639
v -0.022606 -0.263689 0.076670
v -0.022606 -0.263689 -0.001639
v -0.045212 -0.415627 0.037516
v -0.022606 -0.415627 0.076670
v 0.000000 -0.263689 0.037516
v 0.000000 -0.415627 0.037516
v -0.030850 -0.339658 0.021132
v 0.015425 -0.366374 0.021132
v 0.030850 -0.339658 0.021132
v 0.015425 -0.312941 0.021132
v -0.015425 -0.312941 -0.244218
v 0.015425 -0.366374 -0.244218
v 0.030850 -0.339658 -0.244218
v 0.015425 -0.312941 -0.244218
v -0.015425 -0.366374 0.021132
v -0.015425 -0.312941 0.021132
v -0.030850 -0.339658 -0.244218
v -0.015425 -0.366374 -0.244218
v 0.000000 -0.339658 0.021132
v 0.000000 -0.339658 -0.244218
vn 0.0000 0.0000 -1.0000
vn 0.8660 0.0000 -0.5000
vn 0.8660 0.0000 0.5000
vn 0.0000 0.0000 1.0000
vn 0.0000 0.8074 -0.5901
vn -0.8660 0.0000 0.5000
vn -0.8660 0.0000 -0.5000
vn 0.0000 -1.0000 0.0000
vn 0.0000 1.0000 0.0000
vn 0.8660 0.5000 0.0000
vn 0.8660 -0.5000 0.0000
vn 0.7055 0.4073 0.5800
vn -0.8660 -0.5000 0.0000
vn -0.8660 0.5000 0.0000
vn 0.5110 0.8073 0.2950
vn -0.5110 0.8073 -0.2950
vn 0.0000 0.8074 0.5901
vn 0.5110 0.8073 -0.2950
vn -0.5110 0.8073 0.2950
vn 0.7055 -0.4073 0.5800
vn -0.7055 -0.4073 0.5800
vn -0.7055 0.4073 0.5800
vn 0.0000 0.8146 0.5800
vn 0.0000 -0.8146 0.5800
vn 0.0000 0.5266 0.8501
vn 0.0000 -0.5266 -0.8501
vn 0.8660 -0.4251 0.2633
vn -0.8660 0.4251 -0.2633
vn 0.8660 0.4250 -0.2633
vn -0.8660 -0.4251 0.2633
vn 0.0000 0.8501 -0.5266
vn 0.0000 -0.8501 0.5266
vn 1.0000 0.0000 0.0000
vn -1.0000 0.0000 0.0000
vn -0.5773 -0.5774 0.5773
vn -0.5773 0.5774 0.5773
vn -0.5773 -0.5774 -0.5773
vn -0.5773 0.5774 -0.5773
vn 0.5773 -0.5774 0.5773
vn 0.5773 0.5774 0.5773
vn 0.5773 -0.5774 -0.5773
vn 0.5773 0.5774 -0.5773
vn -0.7071 -0.7071 0.0000
vn -0.7071 0.0000 0.7071
vn -0.7071 0.7071 0.0000
vn -0.7071 0.0000 -0.7071
vn 0.0000 -0.7071 -0.7071
vn 0.0000 0.7071 -0.7071
vn 0.7071 0.0000 -0.7071
vn 0.7071 -0.7071 0.0000
vn 0.7071 0.7071 0.0000
vn 0.7071 0.0000 0.7071
vn 0.0000 -0.7071 0.7071
vn 0.0000 0.7071 0.7071
vn 0.0000 0.5481 -0.8364
vn -0.5628 0.8266 0.0000
vn 0.0000 0.5481 0.8364
vn -0.7438 0.6684 0.0000
vn 0.7438 0.6684 0.0000
vn 0.5628 0.8266 0.0000
vn 0.0000 0.7309 -0.6824
vn 0.0000 0.7309 0.6824
vn -0.9998 0.0034 -0.0172
vn 0.0000 1.0000 -0.0054
vn 0.9998 0.0034 -0.0172
vn 0.0000 -1.0000 -0.0054
usemtl Material
s off
f 1//1 2//1 4//1 3//1
f 3//2 4//2 6//2 5//2
f 5//3 6//3 8//3 7//3
f 7//4 8//4 10//4 9//4
f 4//5 2//5 139//5 140//5
f 9//6 10//6 12//6 11//6
f 11//7 12//7 2//7 1//7
f 7//8 9//8 147//8
f 149//1 122//1 126//1 123//1
f 121//3 120//3 124//3 125//3
f 122//2 121//2 125//2 126//2
f 120//4 148//4 151//4 124//4
f 119//7 149//7 123//7 150//7
f 127//9 128//9 130//9 129//9
f 129//10 130//10 132//10 131//10
f 131//11 132//11 134//11 133//11
f 133//8 134//8 136//8 135//8
f 132//12 130//12 153//12 154//12
f 135//13 136//13 138//13 137//13
f 137//14 138//14 128//14 127//14
f 127//1 129//1 131//1 133//1 135//1 137//1
f 142//9 141//9 145//9
f 8//15 6//15 141//15 142//15
f 2//16 12//16 144//16 139//16
f 10//17 8//17 142//17 143//17
f 6//18 4//18 140//18 141//18
f 12//19 10//19 143//19 144//19
f 134//20 132//20 154//20 155//20
f 140//9 139//9 145//9
f 139//9 144//9 145//9
f 143//9 142//9 145//9
f 141//9 140//9 145//9
f 144//9 143//9 145//9
f 138//21 136//21 156//21 157//21
f 128//22 138//22 157//22 146//22
f 1//8 3//8 147//8
f 130//23 128//23 146//23 153//23
f 136//24 134//24 155//24 156//24
f 9//8 11//8 147//8
f 3//8 5//8 147//8
f 5//8 7//8 147//8
f 11//8 1//8 147//8
f 148//6 119//6 150//6 151//6
f 121//9 122//9 152//9
f 149//9 119//9 152//9
f 120//9 121//9 152//9
f 122//9 149//9 152//9
f 148//9 152//9 119//9
f 148//9 120//9 152//9
f 155//4 154//4 158//4
f 157//4 156//4 158//4
f 154//4 153//4 158//4
f 156//4 155//4 158//4
f 146//4 157//4 158//4
f 153//4 146//4 158//4
f 151//8 150//8 159//8
f 126//8 125//8 159//8
f 150//8 123//8 159//8
f 123//8 126//8 159//8
f 125//8 124//8 159//8
f 124//8 151//8 159//8
f 169//1 163//1 167//1 164//1
f 162//3 161//3 165//3 166//3
f 163//2 162//2 166//2 167//2
f 161//4 168//4 171//4 165//4
f 160//7 169//7 164//7 170//7
f 168//6 160//6 170//6 171//6
f 162//9 163//9 172//9
f 169//9 160//9 172//9
f 161//9 162//9 172//9
f 163//9 169//9 172//9
f 168//9 172//9 160//9
f 168//9 161//9 172//9
f 171//8 170//8 173//8
f 167//8 166//8 173//8
f 170//8 164//8 173//8
f 164//8 167//8 173//8
f 166//8 165//8 173//8
f 165//8 171//8 173//8
f 183//9 177//9 181//9 178//9
f 176//11 175//11 179//11 180//11
f 177//10 176//10 180//10 181//10
f 175//8 182//8 185//8 179//8
f 174//14 183//14 178//14 184//14
f 182//13 174//13 184//13 185//13
f 176//4 177//4 186//4
f 183//4 174//4 186//4
f 175//4 176//4 186//4
f 177//4 183//4 186//4
f 182//4 186//4 174//4
f 182//4 175//4 186//4
f 185//1 184//1 187//1
f 181//1 180//1 187//1
f 184//1 178//1 187//1
f 178//1 181//1 187//1
f 180//1 179//1 187//1
f 179//1 185//1 187//1
usemtl Material.001
f 57//9 62//9 68//9 63//9
f 61//9 60//9 66//9 67//9
f 59//9 58//9 64//9 65//9
f 62//9 61//9 67//9 68//9
f 60//9 59//9 65//9 66//9
f 58//9 57//9 63//9 64//9
f 69//8 75//8 80//8 74//8
f 73//8 79//8 78//8 72//8
f 71//8 77//8 76//8 70//8
f 74//8 80//8 79//8 73//8
f 72//8 78//8 77//8 71//8
f 70//8 76//8 75//8 69//8
f 66//3 78//3 79//3 67//3
f 63//7 75//7 76//7 64//7
f 61//7 73//7 72//7 60//7
f 67//2 79//2 80//2 68//2
f 58//3 70//3 69//3 57//3
f 64//6 76//6 77//6 65//6
f 62//6 74//6 73//6 61//6
f 68//1 80//1 75//1 63//1
f 59//2 71//2 70//2 58//2
f 65//4 77//4 78//4 66//4
f 57//4 69//4 74//4 62//4
f 60//1 72//1 71//1 59//1
f 92//25 93//25 99//25 94//25
f 88//25 89//25 97//25 98//25
f 90//25 91//25 95//25 96//25
f 93//25 88//25 98//25 99//25
f 89//25 90//25 96//25 97//25
f 91//25 92//25 94//25 95//25
f 100//26 106//26 111//26 105//26
f 104//26 110//26 109//26 103//26
f 102//26 108//26 107//26 101//26
f 105//26 111//26 110//26 104//26
f 103//26 109//26 108//26 102//26
f 101//26 107//26 106//26 100//26
f 97//27 109//27 110//27 98//27
f 94//28 106//28 107//28 95//28
f 88//28 104//28 103//28 89//28
f 98//29 110//29 111//29 99//29
f 91//27 101//27 100//27 92//27
f 95//30 107//30 108//30 96//30
f 93//30 105//30 104//30 88//30
f 99//31 111//31 106//31 94//31
f 90//29 102//29 101//29 91//29
f 96//32 108//32 109//32 97//32
f 92//32 100//32 105//32 93//32
f 89//31 103//31 102//31 90//31
usemtl Material.002
f 86//9 87//9 85//9
f 84//9 87//9 83//9
f 82//9 87//9 81//9
f 81//9 87//9 86//9
f 85//9 87//9 84//9
f 83//9 87//9 82//9
f 117//26 116//26 118//26
f 115//26 114//26 118//26
f 113//26 112//26 118//26
f 112//26 117//26 118//26
f 116//26 115//26 118//26
f 114//26 113//26 118//26
usemtl Material.003
f 27//4 29//4 16//4 14//4
f 33//33 35//33 30//33 26//33
f 28//9 34//9 39//9 40//9
f 15//34 18//34 24//34 20//34
f 21//1 23//1 36//1 32//1
f 13//35 14//35 15//35
f 16//36 17//36 18//36
f 19//37 20//37 21//37
f 22//38 23//38 24//38
f 25//39 26//39 27//39
f 28//40 29//40 30//40
f 31//41 32//41 33//41
f 34//42 35//42 36//42
f 19//43 13//43 15//43 20//43
f 14//44 16//44 18//44 15//44
f 17//45 22//45 24//45 18//45
f 23//46 21//46 20//46 24//46
f 31//47 19//47 21//47 32//47
f 22//48 34//48 36//48 23//48
f 35//49 33//49 32//49 36//49
f 25//50 31//50 33//50 26//50
f 34//51 28//51 30//51 35//51
f 29//52 27//52 26//52 30//52
f 13//53 25//53 27//53 14//53
f 28//54 17//54 16//54 29//54
f 19//8 31//8 25//8 13//8
f 37//55 40//55 44//55 41//55
f 34//9 22//9 38//9 39//9
f 22//9 17//9 37//9 38//9
f 17//9 28//9 40//9 37//9
f 44//56 43//56 47//56 48//56
f 38//57 42//57 51//57 49//57
f 40//58 39//58 43//58 44//58
f 38//59 37//59 41//59 42//59
f 45//9 48//9 47//9 46//9
f 42//60 41//60 45//60 46//60
f 41//61 44//61 48//61 45//61
f 43//62 42//62 46//62 47//62
f 52//63 50//63 54//63 56//63
f 39//57 38//57 49//57 50//57
f 43//57 39//57 50//57 52//57
f 42//57 43//57 52//57 51//57
f 54//57 53//57 55//57 56//57
f 51//64 52//64 56//64 55//64
f 49//65 51//65 55//65 53//65
f 50//66 49//66 53//66 54//66
