# Blender v2.78 (sub 0) OBJ File: 'bathroomsink.blend'
# www.blender.org
mtllib bathroomsink.mtl
o Cube
v -0.020810 0.084271 -0.211423
v -0.020810 0.167511 -0.211423
v 0.020810 0.084271 -0.211423
v 0.020810 0.167511 -0.211423
v 0.041620 0.084271 -0.175379
v 0.041620 0.167511 -0.175379
v 0.020810 0.084271 -0.139335
v 0.020810 0.167511 -0.139335
v -0.020810 0.084271 -0.139335
v -0.020810 0.167511 -0.139335
v -0.041620 0.084271 -0.175379
v -0.041620 0.167511 -0.175379
v -0.300000 -0.090000 0.230000
v -0.300000 -0.080000 0.240000
v -0.310000 -0.080000 0.230000
v -0.300000 0.080000 0.240000
v -0.300000 0.090000 0.230000
v -0.310000 0.080000 0.230000
v -0.300000 -0.090000 -0.230000
v -0.310000 -0.080000 -0.230000
v -0.300000 -0.080000 -0.240000
v -0.300000 0.090000 -0.230000
v -0.300000 0.080000 -0.240000
v -0.310000 0.080000 -0.230000
v 0.300000 -0.090000 0.230000
v 0.310000 -0.080000 0.230000
v 0.300000 -0.080000 0.240000
v 0.300000 0.090000 0.230000
v 0.300000 0.080000 0.240000
v 0.310000 0.080000 0.230000
v 0.300000 -0.090000 -0.230000
v 0.300000 -0.080000 -0.240000
v 0.310000 -0.080000 -0.230000
v 0.300000 0.090000 -0.230000
v 0.310000 0.080000 -0.230000
v 0.300000 0.080000 -0.240000
v -0.219508 0.090000 0.197582
v -0.219508 0.090000 -0.122551
v 0.219508 0.090000 -0.122551
v 0.219508 0.090000 0.197582
v -0.192552 0.060001 0.177926
v -0.192552 0.060001 -0.102895
v 0.192552 0.060001 -0.102895
v 0.192552 0.060001 0.177926
v -0.138591 0.023263 0.138578
v -0.138591 0.023263 -0.063546
v 0.138591 0.023263 -0.063546
v 0.138591 0.023263 0.138578
v -0.012749 0.078982 -0.115331
v 0.012749 0.078982 -0.115331
v -0.012633 0.071020 -0.110114
v 0.012633 0.071020 -0.110114
v -0.014560 0.079547 -0.220787
v 0.014560 0.079547 -0.220787
v -0.014427 0.070454 -0.214829
v 0.014427 0.070454 -0.214829
v -0.009025 0.024392 0.021884
v -0.018050 0.024392 0.037516
v -0.009025 0.024392 0.053147
v 0.009025 0.024392 0.053147
v 0.018050 0.024392 0.037516
v 0.009025 0.024392 0.021884
v -0.012980 0.024392 0.015034
v -0.025960 0.024392 0.037516
v -0.012980 0.024392 0.059998
v 0.012980 0.024392 0.059998
v 0.025960 0.024392 0.037516
v 0.012980 0.024392 0.015034
v -0.009025 0.017933 0.021884
v -0.018050 0.017933 0.037516
v -0.009025 0.017933 0.053147
v 0.009025 0.017933 0.053147
v 0.018050 0.017933 0.037516
v 0.009025 0.017933 0.021884
v -0.012980 0.017933 0.015034
v -0.025960 0.017933 0.037516
v -0.012980 0.017933 0.059998
v 0.012980 0.017933 0.059998
v 0.025960 0.017933 0.037516
v 0.012980 0.017933 0.015034
v -0.009025 0.023451 0.021884
v -0.018050 0.023451 0.037516
v -0.009025 0.023451 0.053147
v 0.009025 0.023451 0.053147
v 0.018050 0.023451 0.037516
v 0.009025 0.023451 0.021884
v 0.000000 0.023451 0.037516
v 0.011284 0.076123 -0.111482
v 0.005642 0.067816 -0.106336
v -0.005642 0.067816 -0.106336
v -0.011284 0.076123 -0.111482
v -0.005642 0.084430 -0.116628
v 0.005642 0.084430 -0.116628
v -0.008114 0.088071 -0.118883
v -0.016229 0.076123 -0.111482
v -0.008114 0.064175 -0.104081
v 0.008114 0.064175 -0.104081
v 0.016229 0.076123 -0.111482
v 0.008114 0.088070 -0.118883
v -0.005642 0.082304 -0.120061
v -0.011284 0.073996 -0.114915
v -0.005642 0.065689 -0.109769
v 0.005642 0.065689 -0.109769
v 0.011284 0.073996 -0.114915
v 0.005642 0.082304 -0.120061
v -0.008114 0.085944 -0.122316
v -0.016229 0.073996 -0.114915
v -0.008114 0.062049 -0.107514
v 0.008114 0.062049 -0.107514
v 0.016229 0.073996 -0.114915
v 0.008114 0.085944 -0.122316
v -0.005642 0.084120 -0.117129
v -0.011284 0.075813 -0.111982
v -0.005642 0.067506 -0.106836
v 0.005642 0.067506 -0.106836
v 0.011284 0.075813 -0.111982
v 0.005642 0.084120 -0.117129
v 0.000000 0.075813 -0.111982
v -0.034988 -0.049332 0.037516
v 0.017494 -0.049332 0.067816
v 0.034988 -0.049332 0.037516
v 0.017494 -0.049332 0.007215
v -0.017494 -0.881156 0.007215
v 0.017494 -0.881156 0.067816
v 0.034988 -0.881156 0.037516
v 0.017494 -0.881156 0.007215
v -0.009141 0.160721 -0.145380
v -0.009141 0.160721 -0.010308
v 0.009141 0.160721 -0.145380
v 0.009141 0.160721 -0.010308
v 0.018282 0.144889 -0.145380
v 0.018282 0.144889 -0.010308
v 0.009141 0.129057 -0.145380
v 0.009141 0.129057 -0.010308
v -0.009141 0.129057 -0.145380
v -0.009141 0.129057 -0.010308
v -0.018282 0.144889 -0.145380
v -0.018282 0.144889 -0.010308
v -0.017006 0.172327 -0.204834
v 0.017006 0.172327 -0.204834
v 0.034012 0.172327 -0.175379
v 0.017006 0.172327 -0.145923
v -0.017006 0.172327 -0.145923
v -0.034012 0.172327 -0.175379
v -0.000000 0.172327 -0.175379
v -0.007864 0.158510 -0.007201
v -0.000000 0.084271 -0.175379
v -0.017494 -0.049332 0.067816
v -0.017494 -0.049332 0.007215
v -0.034988 -0.881156 0.037516
v -0.017494 -0.881156 0.067816
v 0.000000 -0.049332 0.037516
v 0.007864 0.158510 -0.007201
v 0.015728 0.144889 -0.007201
v 0.007864 0.131268 -0.007201
v -0.007864 0.131268 -0.007201
v -0.015728 0.144889 -0.007201
v -0.000000 0.144889 -0.007201
v 0.000000 -0.881156 0.037516
vn 0.0000 0.0000 -1.0000
vn 0.8660 0.0000 -0.5000
vn 0.8660 0.0000 0.5000
vn 0.0000 0.0000 1.0000
vn 0.0000 0.8073 -0.5901
vn -0.8660 0.0000 0.5000
vn -0.8660 0.0000 -0.5000
vn 0.0000 -1.0000 0.0000
vn 1.0000 0.0000 0.0000
vn 0.0000 1.0000 0.0000
vn -1.0000 0.0000 0.0000
vn -0.5773 -0.5774 0.5773
vn -0.5773 0.5774 0.5773
vn -0.5773 -0.5774 -0.5773
vn -0.5773 0.5774 -0.5773
vn 0.5773 -0.5774 0.5773
vn 0.5773 0.5774 0.5773
vn 0.5773 -0.5774 -0.5773
vn 0.5773 0.5774 -0.5773
vn -0.7071 -0.7071 0.0000
vn -0.7071 0.0000 0.7071
vn -0.7071 0.7071 0.0000
vn -0.7071 0.0000 -0.7071
vn 0.0000 -0.7071 -0.7071
vn 0.0000 0.7071 -0.7071
vn 0.7071 0.0000 -0.7071
vn 0.7071 -0.7071 0.0000
vn 0.7071 0.7071 0.0000
vn 0.7071 0.0000 0.7071
vn 0.0000 -0.7071 0.7071
vn 0.0000 0.7071 0.7071
vn 0.0000 0.5481 -0.8364
vn -0.5628 0.8266 0.0000
vn 0.0000 0.5481 0.8364
vn -0.7438 0.6684 0.0000
vn 0.7438 0.6684 0.0000
vn 0.5628 0.8266 0.0000
vn 0.0000 0.7309 -0.6824
vn 0.0000 0.7309 0.6824
vn -0.9998 0.0034 -0.0172
vn 0.0000 1.0000 -0.0054
vn 0.9998 0.0034 -0.0172
vn 0.0000 -1.0000 -0.0054
vn 0.8660 0.5000 0.0000
vn 0.8660 -0.5000 0.0000
vn 0.7055 0.4073 0.5800
vn -0.8660 -0.5000 0.0000
vn -0.8660 0.5000 0.0000
vn 0.5110 0.8073 0.2950
vn -0.5110 0.8073 -0.2950
vn 0.0000 0.8073 0.5901
vn 0.5110 0.8073 -0.2950
vn -0.5110 0.8073 0.2950
vn 0.7055 -0.4073 0.5800
vn -0.7055 -0.4073 0.5800
vn -0.7055 0.4073 0.5800
vn 0.0000 0.8146 0.5800
vn 0.0000 -0.8146 0.5800
vn 0.0000 0.5266 0.8501
vn 0.0000 -0.5266 -0.8501
vn 0.8660 -0.4251 0.2633
vn -0.8660 0.4251 -0.2633
vn 0.8660 0.4250 -0.2633
vn -0.8660 -0.4251 0.2633
vn 0.0000 0.8501 -0.5266
vn 0.0000 -0.8501 0.5266
usemtl Material
s off
f 1//1 2//1 4//1 3//1
f 3//2 4//2 6//2 5//2
f 5//3 6//3 8//3 7//3
f 7//4 8//4 10//4 9//4
f 4//5 2//5 139//5 140//5
f 9//6 10//6 12//6 11//6
f 11//7 12//7 2//7 1//7
f 7//8 9//8 147//8
f 27//4 29//4 16//4 14//4
f 33//9 35//9 30//9 26//9
f 28//10 34//10 39//10 40//10
f 15//11 18//11 24//11 20//11
f 21//1 23//1 36//1 32//1
f 13//12 14//12 15//12
f 16//13 17//13 18//13
f 19//14 20//14 21//14
f 22//15 23//15 24//15
f 25//16 26//16 27//16
f 28//17 29//17 30//17
f 31//18 32//18 33//18
f 34//19 35//19 36//19
f 19//20 13//20 15//20 20//20
f 14//21 16//21 18//21 15//21
f 17//22 22//22 24//22 18//22
f 23//23 21//23 20//23 24//23
f 31//24 19//24 21//24 32//24
f 22//25 34//25 36//25 23//25
f 35//26 33//26 32//26 36//26
f 25//27 31//27 33//27 26//27
f 34//28 28//28 30//28 35//28
f 29//29 27//29 26//29 30//29
f 13//30 25//30 27//30 14//30
f 28//31 17//31 16//31 29//31
f 19//8 31//8 25//8 13//8
f 37//32 40//32 44//32 41//32
f 34//10 22//10 38//10 39//10
f 22//10 17//10 37//10 38//10
f 17//10 28//10 40//10 37//10
f 44//33 43//33 47//33 48//33
f 38//34 42//34 51//34 49//34
f 40//35 39//35 43//35 44//35
f 38//36 37//36 41//36 42//36
f 45//10 48//10 47//10 46//10
f 42//37 41//37 45//37 46//37
f 41//38 44//38 48//38 45//38
f 43//39 42//39 46//39 47//39
f 52//40 50//40 54//40 56//40
f 39//34 38//34 49//34 50//34
f 43//34 39//34 50//34 52//34
f 42//34 43//34 52//34 51//34
f 54//34 53//34 55//34 56//34
f 51//41 52//41 56//41 55//41
f 49//42 51//42 55//42 53//42
f 50//43 49//43 53//43 54//43
f 149//1 122//1 126//1 123//1
f 121//3 120//3 124//3 125//3
f 122//2 121//2 125//2 126//2
f 120//4 148//4 151//4 124//4
f 119//7 149//7 123//7 150//7
f 127//10 128//10 130//10 129//10
f 129//44 130//44 132//44 131//44
f 131//45 132//45 134//45 133//45
f 133//8 134//8 136//8 135//8
f 132//46 130//46 153//46 154//46
f 135//47 136//47 138//47 137//47
f 137//48 138//48 128//48 127//48
f 127//1 129//1 131//1 133//1 135//1 137//1
f 142//10 141//10 145//10
f 8//49 6//49 141//49 142//49
f 2//50 12//50 144//50 139//50
f 10//51 8//51 142//51 143//51
f 6//52 4//52 140//52 141//52
f 12//53 10//53 143//53 144//53
f 134//54 132//54 154//54 155//54
f 140//10 139//10 145//10
f 139//10 144//10 145//10
f 143//10 142//10 145//10
f 141//10 140//10 145//10
f 144//10 143//10 145//10
f 138//55 136//55 156//55 157//55
f 128//56 138//56 157//56 146//56
f 1//8 3//8 147//8
f 130//57 128//57 146//57 153//57
f 136//58 134//58 155//58 156//58
f 9//8 11//8 147//8
f 3//8 5//8 147//8
f 5//8 7//8 147//8
f 11//8 1//8 147//8
f 148//6 119//6 150//6 151//6
f 121//10 122//10 152//10
f 149//10 119//10 152//10
f 120//10 121//10 152//10
f 122//10 149//10 152//10
f 148//10 152//10 119//10
f 148//10 120//10 152//10
f 155//4 154//4 158//4
f 157//4 156//4 158//4
f 154//4 153//4 158//4
f 156//4 155//4 158//4
f 146//4 157//4 158//4
f 153//4 146//4 158//4
f 151//8 150//8 159//8
f 126//8 125//8 159//8
f 150//8 123//8 159//8
f 123//8 126//8 159//8
f 125//8 124//8 159//8
f 124//8 151//8 159//8
usemtl Material.001
f 57//10 62//10 68//10 63//10
f 61//10 60//10 66//10 67//10
f 59//10 58//10 64//10 65//10
f 62//10 61//10 67//10 68//10
f 60//10 59//10 65//10 66//10
f 58//10 57//10 63//10 64//10
f 69//8 75//8 80//8 74//8
f 73//8 79//8 78//8 72//8
f 71//8 77//8 76//8 70//8
f 74//8 80//8 79//8 73//8
f 72//8 78//8 77//8 71//8
f 70//8 76//8 75//8 69//8
f 66//3 78//3 79//3 67//3
f 63//7 75//7 76//7 64//7
f 61//7 73//7 72//7 60//7
f 67//2 79//2 80//2 68//2
f 58//3 70//3 69//3 57//3
f 64//6 76//6 77//6 65//6
f 62//6 74//6 73//6 61//6
f 68//1 80//1 75//1 63//1
f 59//2 71//2 70//2 58//2
f 65//4 77//4 78//4 66//4
f 57//4 69//4 74//4 62//4
f 60//1 72//1 71//1 59//1
f 92//59 93//59 99//59 94//59
f 88//59 89//59 97//59 98//59
f 90//59 91//59 95//59 96//59
f 93//59 88//59 98//59 99//59
f 89//59 90//59 96//59 97//59
f 91//59 92//59 94//59 95//59
f 100//60 106//60 111//60 105//60
f 104//60 110//60 109//60 103//60
f 102//60 108//60 107//60 101//60
f 105//60 111//60 110//60 104//60
f 103//60 109//60 108//60 102//60
f 101//60 107//60 106//60 100//60
f 97//61 109//61 110//61 98//61
f 94//62 106//62 107//62 95//62
f 88//62 104//62 103//62 89//62
f 98//63 110//63 111//63 99//63
f 91//61 101//61 100//61 92//61
f 95//64 107//64 108//64 96//64
f 93//64 105//64 104//64 88//64
f 99//65 111//65 106//65 94//65
f 90//63 102//63 101//63 91//63
f 96//66 108//66 109//66 97//66
f 92//66 100//66 105//66 93//66
f 89//65 103//65 102//65 90//65
usemtl Material.002
f 86//10 87//10 85//10
f 84//10 87//10 83//10
f 82//10 87//10 81//10
f 81//10 87//10 86//10
f 85//10 87//10 84//10
f 83//10 87//10 82//10
f 117//60 116//60 118//60
f 115//60 114//60 118//60
f 113//60 112//60 118//60
f 112//60 117//60 118//60
f 116//60 115//60 118//60
f 114//60 113//60 118//60
