# Blender v2.79 (sub 0) OBJ File: 'cup.blend'
# www.blender.org
mtllib cup.mtl
o Sphere
v -0.036330 0.111975 -0.087893
v -0.036330 0.050171 -0.087893
v -0.022453 0.000171 -0.054321
v 0.000000 0.046184 0.000000
v 0.036461 0.111975 -0.087839
v 0.036461 0.050171 -0.087839
v 0.022534 0.000171 -0.054287
v 0.087893 0.111975 -0.036330
v 0.087893 0.050171 -0.036330
v 0.054321 0.000171 -0.022453
v 0.000000 0.000332 0.000000
v 0.087839 0.111975 0.036461
v 0.087839 0.050171 0.036461
v 0.054287 0.000171 0.022534
v 0.036330 0.111975 0.087893
v 0.036330 0.050171 0.087893
v 0.022453 0.000171 0.054321
v -0.036461 0.111975 0.087839
v -0.036461 0.050171 0.087839
v -0.022534 0.000171 0.054287
v -0.087893 0.111975 0.036330
v -0.087893 0.050171 0.036330
v -0.054321 0.000171 0.022453
v -0.087839 0.111975 -0.036461
v -0.087839 0.050171 -0.036461
v -0.054287 0.000171 -0.022534
v 0.145692 0.066089 0.000000
v 0.140892 0.066089 0.008314
v 0.131292 0.066089 0.008314
v 0.126492 0.066089 0.000000
v 0.131292 0.066089 -0.008314
v 0.140892 0.066089 -0.008314
v 0.127744 0.107658 0.000000
v 0.125344 0.103501 0.008314
v 0.120544 0.095187 0.008314
v 0.118144 0.091030 0.000000
v 0.120544 0.095187 -0.008314
v 0.125344 0.103501 -0.008314
v 0.085923 0.107658 0.000000
v 0.085945 0.103501 0.008314
v 0.085991 0.095187 0.008314
v 0.086014 0.091030 0.000000
v 0.085991 0.095187 -0.008314
v 0.085945 0.103501 -0.008314
v 0.085968 0.099344 0.000000
v 0.065675 0.032833 0.000000
v 0.060875 0.024520 0.000000
v 0.063275 0.028676 0.008314
v 0.068075 0.036990 0.008314
v 0.070475 0.041147 0.000000
v 0.068075 0.036990 -0.008314
v 0.063275 0.028676 -0.008314
v 0.113503 0.024520 0.000000
v 0.111103 0.028676 0.008314
v 0.106303 0.036990 0.008314
v 0.103903 0.041147 0.000000
v 0.106303 0.036990 -0.008314
v 0.111103 0.028676 -0.008314
vn -0.0000 -1.0000 0.0030
vn 0.0007 -0.0000 -1.0000
vn 0.0006 -0.5573 -0.8303
vn 0.5875 -0.5573 -0.5867
vn -0.0021 -1.0000 0.0021
vn 0.7076 -0.0000 -0.7066
vn 0.8303 -0.5573 0.0006
vn -0.0030 -1.0000 -0.0000
vn 1.0000 -0.0000 0.0007
vn 0.5867 -0.5573 0.5875
vn -0.4241 0.8005 0.4235
vn -0.0021 -1.0000 -0.0021
vn 0.7066 -0.0000 0.7076
vn 0.0004 0.8005 -0.5994
vn -0.0006 -0.5573 0.8303
vn 0.4235 0.8005 0.4241
vn 0.0000 -1.0000 -0.0030
vn -0.0007 0.0000 1.0000
vn -0.4235 0.8005 -0.4241
vn -0.5875 -0.5573 0.5867
vn -0.5994 0.8005 -0.0004
vn 0.0021 -1.0000 -0.0021
vn -0.7076 0.0000 0.7066
vn -0.0004 0.8005 0.5994
vn -0.8303 -0.5573 -0.0006
vn 0.4241 0.8005 -0.4235
vn 0.0030 -1.0000 0.0000
vn -1.0000 0.0000 -0.0007
vn 0.5994 0.8005 0.0004
vn -0.5867 -0.5573 -0.5875
vn 0.0021 -1.0000 0.0021
vn -0.7066 -0.0000 -0.7076
vn 0.8247 0.3497 0.4445
vn 0.0000 -0.0000 1.0000
vn -0.8462 -0.2990 0.4411
vn -0.8462 -0.2990 -0.4411
vn 0.0000 0.0000 -1.0000
vn 0.8247 0.3497 -0.4445
vn 0.0000 0.8944 0.4472
vn -0.0000 -0.8944 0.4472
vn -0.0000 -0.8944 -0.4472
vn 0.0000 0.8944 -0.4472
vn -0.8660 0.5000 0.0000
vn -1.0000 -0.0055 0.0000
vn 0.7051 -0.5533 0.4436
vn -0.6739 0.5933 0.4402
vn -0.6739 0.5933 -0.4402
vn 0.7051 -0.5533 -0.4436
usemtl Material.001
s off
f 11//1 3//1 7//1
f 2//2 1//2 5//2 6//2
f 3//3 2//3 6//3 7//3
f 7//4 6//4 9//4 10//4
f 11//5 7//5 10//5
f 6//6 5//6 8//6 9//6
f 10//7 9//7 13//7 14//7
f 11//8 10//8 14//8
f 9//9 8//9 12//9 13//9
f 14//10 13//10 16//10 17//10
f 8//11 5//11 4//11
f 11//12 14//12 17//12
f 13//13 12//13 15//13 16//13
f 18//14 15//14 4//14
f 17//15 16//15 19//15 20//15
f 1//16 24//16 4//16
f 11//17 17//17 20//17
f 16//18 15//18 18//18 19//18
f 15//19 12//19 4//19
f 20//20 19//20 22//20 23//20
f 12//21 8//21 4//21
f 11//22 20//22 23//22
f 19//23 18//23 21//23 22//23
f 5//24 1//24 4//24
f 23//25 22//25 25//25 26//25
f 21//26 18//26 4//26
f 11//27 23//27 26//27
f 22//28 21//28 24//28 25//28
f 24//29 21//29 4//29
f 26//30 25//30 2//30 3//30
f 11//31 26//31 3//31
f 25//32 24//32 1//32 2//32
f 27//33 33//33 34//33 28//33
f 28//34 34//34 35//34 29//34
f 29//35 35//35 36//35 30//35
f 30//36 36//36 37//36 31//36
f 31//37 37//37 38//37 32//37
f 32//38 38//38 33//38 27//38
f 33//39 39//39 40//39 34//39
f 34//34 40//34 41//34 35//34
f 35//40 41//40 42//40 36//40
f 36//41 42//41 43//41 37//41
f 37//37 43//37 44//37 38//37
f 38//42 44//42 39//42 33//42
f 48//43 49//43 46//43
f 52//43 47//43 46//43
f 43//44 42//44 45//44
f 42//44 41//44 45//44
f 44//44 43//44 45//44
f 50//43 51//43 46//43
f 47//43 48//43 46//43
f 49//43 50//43 46//43
f 41//44 40//44 45//44
f 40//44 39//44 45//44
f 39//44 44//44 45//44
f 51//43 52//43 46//43
f 47//40 53//40 54//40 48//40
f 48//34 54//34 55//34 49//34
f 49//39 55//39 56//39 50//39
f 50//42 56//42 57//42 51//42
f 51//37 57//37 58//37 52//37
f 52//41 58//41 53//41 47//41
f 53//45 27//45 28//45 54//45
f 54//34 28//34 29//34 55//34
f 55//46 29//46 30//46 56//46
f 56//47 30//47 31//47 57//47
f 57//37 31//37 32//37 58//37
f 58//48 32//48 27//48 53//48
