# Blender v2.78 (sub 0) OBJ File: 'home001.blend'
# www.blender.org
mtllib home003.mtl
o Cube
v -1.000000 0.100000 -2.312496
v -1.000000 2.100000 -2.312496
v -1.000000 2.100001 -4.312496
v -1.000000 0.100001 -4.312496
v 4.047923 2.100001 -4.312496
v 4.047923 0.100001 -4.312496
v 4.047923 2.100000 -2.312496
v 4.047923 0.100000 -2.312496
v 0.000000 6.037762 4.346889
v -4.346888 6.037762 4.346889
v -4.346888 8.791957 4.346889
v 0.000000 8.791957 4.346889
v -4.346888 0.098184 -4.346888
v -4.346888 0.098182 4.346888
v 8.346888 0.098182 4.346888
v 8.346888 0.098184 -4.346888
v -4.346888 0.098184 -4.346888
v 8.346888 0.098184 -4.346888
v 8.346888 8.791959 -4.346887
v -4.346888 8.791959 -4.346887
v 8.346888 6.036195 1.448963
v 8.346888 6.036194 4.346889
v 8.346888 8.791957 4.346889
v 8.346888 8.791958 1.448963
v -4.346888 4.739830 2.173445
v -4.346888 4.739830 0.000001
v -4.346888 8.791958 0.000001
v -4.346888 8.791958 2.173445
v -4.346888 4.739830 -2.173443
v -4.346888 4.739830 -4.346887
v -4.346888 8.791959 -4.346887
v -4.346888 8.791958 -2.173443
v -3.627761 0.100001 -1.987158
v -3.627761 4.915860 -1.987157
v -3.627761 4.915860 -3.987157
v -3.627761 0.100001 -3.987158
v -1.627761 4.915860 -3.987157
v -1.627761 0.100001 -3.987158
v -1.627761 4.915860 -1.987157
v -1.627761 0.100001 -1.987158
v -1.627761 0.100001 -1.890972
v -3.627761 0.100001 -1.890972
v -3.627761 4.915860 -1.890971
v -1.627761 4.915860 -1.890971
v -1.627761 0.100001 -1.684463
v -1.627761 4.915860 -1.684462
v -3.627761 4.915860 -1.684462
v -3.627761 0.100001 -1.684463
v 1.523961 0.189377 -2.221872
v -0.774417 0.189377 -2.221872
v -0.774417 2.010624 -2.221872
v 1.523961 2.010624 -2.221872
v 3.822340 0.189377 -2.038540
v 3.822340 2.010624 -2.038540
v 1.523961 2.010624 -2.038540
v 1.523961 0.189377 -2.038540
v 3.822340 0.189377 -2.221872
v 1.523961 0.189377 -2.221872
v 1.523961 2.010624 -2.221872
v 3.822340 2.010624 -2.221872
v 1.523961 0.189377 -2.002963
v 1.523961 2.010624 -2.002963
v -0.774417 2.010624 -2.002963
v -0.774417 0.189377 -2.002963
v -4.346888 4.739830 4.346889
v -4.346888 8.791957 4.346889
v -4.346888 2.271625 4.346889
v -4.346888 2.271626 2.173445
v -4.346888 2.566386 2.173445
v -4.346888 2.566385 4.346889
v -4.346888 2.271626 0.000000
v -4.346888 2.271626 -2.173444
v -4.346888 2.566386 -2.173444
v -4.346888 2.566386 0.000000
v -4.346888 2.271627 -4.346888
v -4.346888 2.566387 -4.346888
v 8.346888 6.037762 4.346889
v 2.173444 6.037762 4.346889
v 2.173444 8.791957 4.346889
v 8.346888 8.791957 4.346889
v -4.346888 0.098183 2.173444
v -4.346888 0.098183 0.000000
v -4.346888 0.098183 -2.173444
v -4.346888 0.098184 -4.346888
v -4.346888 0.098182 4.346888
v 8.346888 0.098182 4.346888
v 2.173444 0.098182 4.346888
v 2.173444 4.445069 4.346889
v 8.346888 4.445069 4.346889
v 0.000000 0.098182 4.346888
v -4.346888 0.098182 4.346888
v -4.346888 4.445069 4.346889
v 0.000000 4.445069 4.346889
v 0.031985 2.155278 -3.734741
v 0.031985 2.209512 -3.734740
v -0.094787 2.209511 -3.560255
v -0.094787 2.155278 -3.560255
v 0.967541 2.209511 -3.176351
v 0.762420 2.209511 -3.242999
v 0.557299 2.209511 -3.176351
v 0.430527 2.209511 -3.001864
v 0.430527 2.209511 -2.786186
v 0.557299 2.209511 -2.611701
v 0.762420 2.209511 -2.545053
v 0.967541 2.209511 -2.611701
v 1.094313 2.209511 -2.786186
v 1.094313 2.209511 -3.001864
v -0.302593 2.148615 -3.358719
v -0.302593 2.216172 -3.358719
v -0.047071 2.216172 -3.275695
v -0.047071 2.148615 -3.275695
v -0.299908 2.155278 -4.191552
v -0.094787 2.155278 -4.124905
v 0.031985 2.155278 -3.950418
v -0.299908 2.155278 -3.493607
v -0.505029 2.155278 -3.560255
v -0.631801 2.155278 -3.734741
v -0.631801 2.155278 -3.950418
v -0.505029 2.155278 -4.124905
v 0.430527 2.155278 -2.786187
v 0.430527 2.155278 -3.001865
v 0.110849 2.216172 -3.058336
v 0.110849 2.148615 -3.058336
v -0.299908 2.209511 -3.493607
v -0.505029 2.209511 -3.560255
v 0.557299 2.155278 -2.611701
v 0.110849 2.216172 -2.789665
v 0.110849 2.148615 -2.789665
v -0.631801 2.209512 -3.734740
v 0.762420 2.155278 -2.545053
v -0.047072 2.216172 -2.572304
v -0.047072 2.148615 -2.572305
v -0.631801 2.209512 -3.950418
v 0.967541 2.155278 -2.611701
v -0.302593 2.216172 -2.489281
v -0.302593 2.148615 -2.489282
v -0.094787 2.209512 -4.124905
v -0.299908 2.209512 -4.191552
v -0.505029 2.209512 -4.124905
v 0.031985 2.209512 -3.950418
v 1.094313 2.155278 -2.786187
v -0.558114 2.216172 -2.572305
v -0.558114 2.148615 -2.572306
v 0.762420 2.155278 -3.242999
v 0.967541 2.155278 -3.176351
v 1.094313 2.155278 -3.001865
v 0.557299 2.155278 -3.176351
v -0.716035 2.216172 -2.789665
v -0.716035 2.148615 -2.789665
v -0.716035 2.216172 -3.058336
v -0.716035 2.148615 -3.058336
v -0.558114 2.216172 -3.275695
v -0.558114 2.148615 -3.275695
v 0.767463 2.148616 -4.237887
v 0.767463 2.216172 -4.237887
v 1.022984 2.216172 -4.154863
v 1.022984 2.148616 -4.154863
v 1.180905 2.216172 -3.937505
v 1.180905 2.148616 -3.937505
v 1.180905 2.216172 -3.668833
v 1.180905 2.148616 -3.668834
v 1.022984 2.216172 -3.451473
v 1.022984 2.148615 -3.451474
v 0.767463 2.216172 -3.368451
v 0.767463 2.148615 -3.368451
v 0.511942 2.216172 -3.451474
v 0.511942 2.148615 -3.451475
v 0.354021 2.216172 -3.668833
v 0.354021 2.148616 -3.668834
v 0.354021 2.216172 -3.937505
v 0.354021 2.148616 -3.937505
v 0.511942 2.216172 -4.154863
v 0.511942 2.148616 -4.154863
v 8.346888 6.036195 -4.346887
v 8.346888 6.036195 -1.448961
v 8.346888 8.791958 -1.448961
v 8.346888 8.791959 -4.346887
v 8.346888 0.098183 -1.448962
v 8.608372 0.098183 -1.448962
v 8.608372 6.036195 -1.448961
v 8.346888 0.098184 -4.346888
v 8.346888 0.098183 1.448962
v 8.346888 0.098182 4.346888
v 8.608372 6.036195 1.448963
v 8.608372 0.098183 1.448962
v 8.608372 6.036194 4.551038
v 8.608372 0.098182 4.551039
v 8.608372 0.098184 -4.448962
v 8.608372 6.036196 -4.448961
v 8.608372 9.036196 -4.448961
v 8.608372 9.036195 -1.448961
v 8.608372 9.036195 1.448963
v 8.608372 9.036194 4.551038
v 19.108372 6.056858 -4.448961
v 19.108372 9.036196 -4.448961
v 22.608372 9.036196 -4.448961
v 22.608372 6.056858 -4.448961
v 8.608372 0.098181 10.551038
v 8.608372 9.036193 10.551040
v 22.608372 9.036193 10.551040
v 22.608372 0.098181 10.551038
v 8.608372 9.036193 10.551040
v 8.608372 0.098181 10.551038
v 8.608372 0.098182 4.551038
v 8.608372 9.036194 4.551039
v 22.608372 9.036193 10.551040
v 22.608372 0.098181 10.551038
v 22.608372 0.098184 -4.448962
v 22.608372 9.036196 -4.448961
v 8.608372 6.056858 -4.448961
v 8.608372 9.036196 -4.448961
v 12.108372 9.036196 -4.448961
v 12.108372 6.056858 -4.448961
v 15.608372 9.036196 -4.448961
v 15.608372 6.056858 -4.448961
v 15.608372 0.098184 -4.448962
v 15.608372 3.077521 -4.448962
v 19.108372 3.077521 -4.448962
v 19.108372 0.098184 -4.448962
v 19.751719 6.466954 -4.448961
v 15.608372 6.466954 -4.448961
v 15.608372 6.466954 -3.579174
v 19.751719 6.466954 -3.579174
v 12.108372 0.098184 -4.448962
v 12.108372 3.077521 -4.448962
v 11.465025 6.466954 -4.448961
v 11.465025 6.466954 -3.579174
v 8.608372 0.098184 -4.448962
v 8.608372 3.077521 -4.448962
v 22.608372 3.077521 -4.448962
v 22.608372 0.098184 -4.448962
v 11.465025 5.977832 -4.448961
v 11.465025 5.977831 -3.579174
v 15.608372 5.977831 -3.579174
v 19.751719 5.977831 -3.579174
v 19.751719 5.977832 -4.448961
v 18.644438 6.314448 -3.760130
v 18.553896 6.314448 -3.712837
v 18.553896 0.314448 -3.712838
v 18.644438 0.314448 -3.760131
v 19.202492 6.314448 -3.805402
v 19.187344 6.314448 -4.061793
v 19.187344 0.314448 -4.061794
v 19.202492 0.314448 -3.805403
v 18.418255 6.314448 -3.699827
v 18.418255 0.314448 -3.699828
v 19.021524 6.314448 -4.137217
v 19.021524 0.314448 -4.137218
v 18.372927 6.314448 -4.107036
v 18.372927 0.314448 -4.107037
v 19.051704 6.314448 -3.820463
v 19.051704 0.314448 -3.820464
v 18.840555 6.314448 -3.639465
v 18.840555 0.314448 -3.639466
v 18.750013 6.314448 -4.061793
v 18.750013 0.314448 -4.061794
v 19.610325 6.314448 -4.197595
v 19.534365 6.314448 -3.926038
v 19.534365 0.314448 -3.926039
v 19.610325 0.314448 -4.197596
v 18.659470 6.314448 -4.076855
v 18.659470 0.314448 -4.076856
v 19.368429 6.314448 -3.684736
v 19.368429 0.314448 -3.684737
v 12.057335 6.314448 -3.760130
v 11.966793 6.314448 -3.712837
v 11.966793 0.314448 -3.712838
v 12.057335 0.314448 -3.760131
v 12.615389 6.314448 -3.805402
v 12.600241 6.314448 -4.061793
v 12.600241 0.314448 -4.061794
v 12.615389 0.314448 -3.805403
v 11.831152 6.314448 -3.699827
v 11.831152 0.314448 -3.699828
v 12.434422 6.314448 -4.137217
v 12.434422 0.314448 -4.137218
v 11.785824 6.314448 -4.107036
v 11.785824 0.314448 -4.107037
v 12.464602 6.314448 -3.820463
v 12.464602 0.314448 -3.820464
v 12.253452 6.314448 -3.639465
v 12.253452 0.314448 -3.639466
v 12.162910 6.314448 -4.061793
v 12.162910 0.314448 -4.061794
v 13.023222 6.314448 -4.197595
v 12.947262 6.314448 -3.926038
v 12.947262 0.314448 -3.926039
v 13.023222 0.314448 -4.197596
v 12.072367 6.314448 -4.076855
v 12.072367 0.314448 -4.076856
v 12.781326 6.314448 -3.684736
v 12.781326 0.314448 -3.684737
v 22.608372 0.098181 10.551038
v 22.608372 0.098184 -4.448962
v 8.608372 0.098181 10.551038
v 8.608372 0.098184 -4.448962
vn 0.0000 1.0000 0.0000
vn 0.0000 0.0000 -1.0000
vn 0.0000 -0.0000 1.0000
vn -1.0000 -0.0000 0.0000
vn 0.0000 -1.0000 -0.0000
vn 1.0000 0.0000 0.0000
vn 0.8090 -0.0000 0.5878
vn 0.3090 0.0000 -0.9511
vn 0.8090 0.0000 -0.5878
vn -0.3090 -0.0000 0.9511
vn -0.8090 -0.0000 0.5878
vn 0.3090 -0.0000 0.9511
vn -0.3090 0.0000 -0.9511
vn -0.8090 0.0000 -0.5878
vn 0.4630 -0.0000 0.8864
vn -0.9983 0.0000 0.0590
vn 0.0955 -0.0000 0.9954
vn -0.4140 -0.0000 0.9103
vn -0.9939 0.0000 0.1106
vn 0.9955 0.0000 -0.0948
vn 0.6508 -0.0000 0.7592
vn -0.9778 0.0000 0.2096
vn 0.9630 0.0000 0.2694
vn -0.1641 -0.0000 0.9864
vn 0.8240 0.0000 0.5666
vn 0.9989 0.0000 0.0474
vn -0.5881 0.0000 0.8088
vn 0.9955 0.0000 -0.0949
usemtl None
s 1
f 13//1 14//1 15//1 16//1
usemtl brown(lighter)
f 49//2 50//2 51//2 52//2
f 53//3 54//3 55//3 56//3
f 57//2 58//2 59//2 60//2
f 59//4 58//4 56//4 55//4
f 58//5 57//5 53//5 56//5
f 60//1 59//1 55//1 54//1
f 57//6 60//6 54//6 53//6
f 61//3 62//3 63//3 64//3
f 49//6 52//6 62//6 61//6
f 50//5 49//5 61//5 64//5
f 51//4 50//4 64//4 63//4
f 52//1 51//1 63//1 62//1
usemtl brown(dark)
f 1//4 2//4 3//4 4//4
f 4//2 3//2 5//2 6//2
f 6//6 5//6 7//6 8//6
f 8//3 7//3 2//3 1//3
f 4//5 6//5 8//5 1//5
f 5//1 3//1 2//1 7//1
usemtl black
f 94//7 95//7 96//7 97//7
f 98//1 99//1 100//1 101//1 102//1 103//1 104//1 105//1 106//1 107//1
f 108//8 109//8 110//8 111//8
f 112//5 113//5 114//5 94//5 97//5 115//5 116//5 117//5 118//5 119//5
f 120//4 102//4 101//4 121//4
f 111//9 110//9 122//9 123//9
f 115//10 124//10 125//10 116//10
f 126//11 103//11 102//11 120//11
f 123//6 122//6 127//6 128//6
f 116//11 125//11 129//11 117//11
f 130//10 104//10 103//10 126//10
f 128//7 127//7 131//7 132//7
f 117//4 129//4 133//4 118//4
f 134//12 105//12 104//12 130//12
f 132//12 131//12 135//12 136//12
f 137//1 138//1 139//1 133//1 129//1 125//1 124//1 96//1 95//1 140//1
f 141//7 106//7 105//7 134//7
f 136//10 135//10 142//10 143//10
f 144//5 145//5 146//5 141//5 134//5 130//5 126//5 120//5 121//5 147//5
f 146//6 107//6 106//6 141//6
f 143//11 142//11 148//11 149//11
f 147//13 100//13 99//13 144//13
f 145//9 98//9 107//9 146//9
f 149//4 148//4 150//4 151//4
f 110//1 109//1 152//1 150//1 148//1 142//1 135//1 131//1 127//1 122//1
f 144//8 99//8 98//8 145//8
f 151//14 150//14 152//14 153//14
f 97//12 96//12 124//12 115//12
f 121//14 101//14 100//14 147//14
f 153//13 152//13 109//13 108//13
f 108//5 111//5 123//5 128//5 132//5 136//5 143//5 149//5 151//5 153//5
f 114//6 140//6 95//6 94//6
f 119//13 139//13 138//13 112//13
f 113//9 137//9 140//9 114//9
f 112//8 138//8 137//8 113//8
f 118//14 133//14 139//14 119//14
f 154//8 155//8 156//8 157//8
f 157//9 156//9 158//9 159//9
f 159//6 158//6 160//6 161//6
f 161//7 160//7 162//7 163//7
f 163//12 162//12 164//12 165//12
f 165//10 164//10 166//10 167//10
f 167//11 166//11 168//11 169//11
f 169//4 168//4 170//4 171//4
f 156//1 155//1 172//1 170//1 168//1 166//1 164//1 162//1 160//1 158//1
f 171//14 170//14 172//14 173//14
f 173//13 172//13 155//13 154//13
f 154//5 157//5 159//5 161//5 163//5 165//5 167//5 169//5 171//5 173//5
usemtl offwhite
s off
f 294//5 293//5 295//5 296//5
s 1
f 17//3 18//3 19//3 20//3
usemtl vlightgreen
f 9//2 10//2 11//2 12//2
f 21//4 22//4 23//4 24//4
f 25//6 26//6 27//6 28//6
f 29//6 30//6 31//6 32//6
f 26//6 29//6 32//6 27//6
f 65//6 25//6 28//6 66//6
f 67//6 68//6 69//6 70//6
f 71//6 72//6 73//6 74//6
f 72//6 75//6 76//6 73//6
f 68//6 71//6 74//6 69//6
f 70//6 69//6 25//6 65//6
f 77//2 78//2 79//2 80//2
f 73//6 76//6 30//6 29//6
f 78//2 9//2 12//2 79//2
f 81//6 82//6 71//6 68//6
f 83//6 84//6 75//6 72//6
f 82//6 83//6 72//6 71//6
f 85//6 81//6 68//6 67//6
f 86//2 87//2 88//2 89//2
f 90//2 91//2 92//2 93//2
f 89//2 88//2 78//2 77//2
f 93//2 92//2 10//2 9//2
f 174//4 175//4 176//4 177//4
f 175//4 21//4 24//4 176//4
f 175//3 178//3 179//3 180//3
f 181//4 178//4 175//4 174//4
f 182//4 183//4 22//4 21//4
f 182//2 21//2 184//2 185//2
f 178//1 182//1 185//1 179//1
f 21//5 175//5 180//5 184//5
f 185//6 184//6 186//6 187//6
f 180//6 179//6 188//6 189//6
f 180//6 189//6 190//6 191//6
f 186//6 184//6 192//6 193//6
f 184//6 180//6 191//6 192//6
f 202//6 203//6 204//6 205//6
usemtl Silver
f 33//4 34//4 35//4 36//4
f 36//2 35//2 37//2 38//2
f 38//6 37//6 39//6 40//6
f 40//3 39//3 34//3 33//3
f 36//5 38//5 40//5 33//5
f 37//1 35//1 34//1 39//1
f 41//2 42//2 43//2 44//2
f 45//3 46//3 47//3 48//3
f 42//5 41//5 45//5 48//5
f 43//4 42//4 48//4 47//4
f 44//1 43//1 47//1 46//1
f 41//6 44//6 46//6 45//6
usemtl Material
f 237//15 238//15 239//15 240//15
f 241//16 242//16 243//16 244//16
f 238//17 245//17 246//17 239//17
f 242//18 247//18 248//18 243//18
f 245//19 249//19 250//19 246//19
f 247//20 251//20 252//20 248//20
f 251//21 253//21 254//21 252//21
f 253//22 255//22 256//22 254//22
f 257//23 258//23 259//23 260//23
f 255//24 261//24 262//24 256//24
f 258//25 263//25 264//25 259//25
f 261//26 237//26 240//26 262//26
f 263//27 241//27 244//27 264//27
f 265//15 266//15 267//15 268//15
f 269//16 270//16 271//16 272//16
f 266//17 273//17 274//17 267//17
f 270//18 275//18 276//18 271//18
f 273//19 277//19 278//19 274//19
f 275//28 279//28 280//28 276//28
f 279//21 281//21 282//21 280//21
f 281//22 283//22 284//22 282//22
f 285//23 286//23 287//23 288//23
f 283//24 289//24 290//24 284//24
f 286//25 291//25 292//25 287//25
f 289//26 265//26 268//26 290//26
f 291//27 269//27 272//27 292//27
usemtl Blue(dark)
f 198//2 199//2 200//2 201//2
f 220//1 221//1 222//1 223//1
f 221//1 226//1 227//1 222//1
f 227//4 226//4 232//4 233//4
f 222//3 227//3 233//3 234//3
f 220//6 223//6 235//6 236//6
f 223//3 222//3 234//3 235//3
usemtl blue(light)
f 194//2 195//2 196//2 197//2
f 206//6 207//6 208//6 209//6
f 210//2 211//2 212//2 213//2
f 213//2 212//2 214//2 215//2
f 215//2 214//2 195//2 194//2
f 216//2 217//2 218//2 219//2
f 224//2 225//2 217//2 216//2
f 228//2 229//2 225//2 224//2
f 229//2 210//2 213//2 225//2
f 219//2 218//2 230//2 231//2
f 218//2 194//2 197//2 230//2
