# Blender v2.78 (sub 0) OBJ File: ''
# www.blender.org
mtllib kitchenroom.mtl
o Cube
v -1.000000 -1.000000 -2.312496
v -1.000000 1.000000 -2.312496
v -1.000000 -1.000000 -4.312496
v -1.000000 1.000000 -4.312496
v 4.047923 -1.000000 -2.312496
v 4.047923 1.000000 -2.312496
v 4.047923 -1.000000 -4.312496
v 4.047923 1.000000 -4.312496
v -4.346888 7.691958 -2.173444
v 4.346888 -1.001817 4.346888
v -4.346888 -1.001817 -2.173444
v -4.346888 -1.001817 -4.346888
v -4.346888 7.691958 0.000000
v -4.346888 -1.001817 -4.346888
v -4.346888 -1.001817 0.000000
v -4.346888 -1.001817 4.346888
v -3.627761 -1.000000 -1.987158
v -3.627761 3.815859 -1.987158
v -3.627761 -1.000000 -3.987158
v -3.627761 3.815859 -3.987158
v -1.627761 -1.000000 -1.987158
v -1.627761 3.815859 -1.987158
v -1.627761 -1.000000 -3.987158
v -1.627761 3.815859 -3.987158
v -3.627761 -1.000000 -1.890972
v -3.627761 3.815859 -1.890972
v -1.627761 -1.000000 -1.890972
v -1.627761 3.815859 -1.890972
v -3.627761 -1.000000 -1.684463
v -3.627761 3.815859 -1.684463
v -1.627761 3.815859 -1.684463
v -1.627761 -1.000000 -1.684463
v -0.774417 -0.910623 -2.221872
v -0.774417 0.910623 -2.221872
v 3.822340 -0.910623 -2.038540
v 3.822340 0.910623 -2.038540
v 1.523961 -0.910623 -2.221872
v 1.523961 0.910623 -2.221872
v 3.822340 -0.910623 -2.221872
v 3.822340 0.910623 -2.221872
v 1.523961 -0.910623 -2.221872
v 1.523961 0.910623 -2.221872
v 1.523961 -0.910623 -2.038540
v 1.523961 0.910623 -2.038540
v -0.774417 -0.910623 -2.002963
v -0.774417 0.910623 -2.002963
v 1.523961 0.910623 -2.002963
v 1.523961 -0.910623 -2.002963
v -4.346888 -1.001817 4.346888
v -4.346888 7.691958 4.346888
v -4.346888 -1.001817 -4.346888
v -4.346888 7.691958 -4.346888
v -4.346888 -1.001817 4.346888
v -4.346888 7.691958 4.346888
v 4.346888 -1.001817 4.346888
v 4.346888 7.691958 4.346888
v 4.346888 7.691958 4.346888
v 4.346888 -1.001817 -4.346888
v 4.346888 7.691958 -4.346888
v -4.346888 7.691958 -4.346888
v 4.346888 -1.001817 -4.346888
v 4.346888 7.691958 -4.346888
v 4.346888 -1.001817 4.346888
v 4.346888 -1.001817 -4.346888
v -4.346888 7.691958 2.173444
v -4.346888 -1.001817 2.173444
v -4.346888 1.466386 0.000000
v -4.346888 1.466386 4.346888
v -4.346888 1.466386 -4.346888
v -4.346888 1.466386 -2.173444
v -4.346888 1.466386 2.173444
v -4.346888 3.639829 0.000000
v -4.346888 3.639829 4.346888
v -4.346888 3.639829 -2.173444
v -4.346888 3.639829 2.173444
v -4.346888 3.639829 -4.346888
v -4.346888 1.171627 -4.346888
v -4.346888 1.171627 0.000000
v -4.346888 1.171627 4.346888
v -4.346888 1.171627 -2.173444
v -4.346888 1.171627 2.173444
v 0.000000 -1.001817 4.346888
v 0.000000 7.691958 4.346888
v 2.173444 -1.001817 4.346888
v 2.173444 7.691958 4.346888
v -4.346888 3.345070 4.346888
v 4.346888 3.345070 4.346888
v 0.000000 3.345070 4.346888
v 2.173444 3.345070 4.346888
v -4.346888 4.937762 4.346888
v 0.000000 4.937762 4.346888
v 2.173444 4.937762 4.346888
v 4.346888 4.937762 4.346888
v 0.762420 1.109510 -3.242999
v 0.762420 1.055278 -3.242999
v -0.302593 1.048615 -3.358719
v -0.302593 1.116173 -3.358719
v -0.047071 1.048615 -3.275695
v -0.047071 1.116173 -3.275695
v 0.110849 1.048615 -3.058336
v 0.110849 1.116173 -3.058336
v 0.110849 1.048615 -2.789665
v 0.110849 1.116173 -2.789665
v -0.047072 1.048615 -2.572305
v -0.047072 1.116173 -2.572305
v -0.302593 1.048615 -2.489282
v -0.302593 1.116173 -2.489282
v -0.558114 1.048615 -2.572306
v -0.558114 1.116173 -2.572306
v -0.716035 1.048615 -2.789665
v -0.716035 1.116173 -2.789665
v -0.716035 1.048615 -3.058336
v -0.716035 1.116173 -3.058336
v -0.558114 1.048615 -3.275695
v -0.558114 1.116173 -3.275695
v 0.967541 1.055278 -3.176351
v 0.967541 1.109510 -3.176351
v 1.094313 1.055278 -3.001865
v 1.094313 1.109510 -3.001865
v 1.094313 1.055278 -2.786187
v 1.094313 1.109510 -2.786187
v 0.967541 1.055278 -2.611701
v 0.967541 1.109510 -2.611701
v 0.762420 1.055278 -2.545053
v 0.762420 1.109510 -2.545053
v 0.557299 1.055278 -2.611701
v 0.557299 1.109510 -2.611701
v 0.430527 1.055278 -2.786187
v 0.430527 1.109510 -2.786187
v 0.430527 1.055278 -3.001865
v 0.430527 1.109510 -3.001865
v 0.557299 1.055278 -3.176351
v 0.557299 1.109510 -3.176351
v -0.299908 1.109510 -4.191552
v -0.299908 1.055278 -4.191552
v -0.094787 1.055278 -4.124905
v -0.094787 1.109510 -4.124905
v 0.031985 1.055278 -3.950418
v 0.031985 1.109510 -3.950418
v 0.031985 1.055278 -3.734741
v 0.031985 1.109510 -3.734741
v -0.094787 1.055278 -3.560255
v -0.094787 1.109510 -3.560255
v -0.299908 1.055278 -3.493607
v -0.299908 1.109510 -3.493607
v -0.505029 1.055278 -3.560255
v -0.505029 1.109510 -3.560255
v -0.631801 1.055278 -3.734741
v -0.631801 1.109510 -3.734741
v -0.631801 1.055278 -3.950418
v -0.631801 1.109510 -3.950418
v -0.505029 1.055278 -4.124905
v -0.505029 1.109510 -4.124905
v 0.767463 1.048615 -4.237888
v 0.767463 1.116173 -4.237888
v 1.022984 1.048615 -4.154864
v 1.022984 1.116173 -4.154864
v 1.180905 1.048615 -3.937505
v 1.180905 1.116173 -3.937505
v 1.180905 1.048615 -3.668834
v 1.180905 1.116173 -3.668834
v 1.022984 1.048615 -3.451474
v 1.022984 1.116173 -3.451474
v 0.767463 1.048615 -3.368451
v 0.767463 1.116173 -3.368451
v 0.511942 1.048615 -3.451475
v 0.511942 1.116173 -3.451475
v 0.354021 1.048615 -3.668834
v 0.354021 1.116173 -3.668834
v 0.354021 1.048615 -3.937505
v 0.354021 1.116173 -3.937505
v 0.511942 1.048615 -4.154864
v 0.511942 1.116173 -4.154864
vn -1.0000 0.0000 0.0000
vn 0.0000 0.0000 -1.0000
vn 1.0000 0.0000 0.0000
vn 0.0000 0.0000 1.0000
vn 0.0000 -1.0000 0.0000
vn 0.0000 1.0000 0.0000
vn 0.8090 0.0000 0.5878
vn 0.3090 0.0000 -0.9511
vn 0.8090 0.0000 -0.5878
vn -0.3090 0.0000 0.9511
vn -0.8090 0.0000 0.5878
vn 0.3090 0.0000 0.9511
vn -0.3090 0.0000 -0.9511
vn -0.8090 0.0000 -0.5878
usemtl None
s off
f 1//1 2//1 4//1 3//1
f 3//2 4//2 8//2 7//2
f 7//3 8//3 6//3 5//3
f 5//4 6//4 2//4 1//4
f 3//5 7//5 5//5 1//5
f 8//6 4//6 2//6 6//6
f 91//2 90//2 54//2 83//2
f 12//6 16//6 63//6 64//6
f 14//4 61//4 62//4 60//4
f 58//1 10//1 57//1 59//1
f 75//3 72//3 13//3 65//3
f 74//3 76//3 52//3 9//3
f 17//1 18//1 20//1 19//1
f 19//2 20//2 24//2 23//2
f 23//3 24//3 22//3 21//3
f 21//4 22//4 18//4 17//4
f 19//5 23//5 21//5 17//5
f 24//6 20//6 18//6 22//6
f 27//2 25//2 26//2 28//2
f 32//4 31//4 30//4 29//4
f 25//5 27//5 32//5 29//5
f 26//1 25//1 29//1 30//1
f 28//6 26//6 30//6 31//6
f 27//3 28//3 31//3 32//3
f 37//2 33//2 34//2 38//2
f 35//4 36//4 44//4 43//4
f 39//2 41//2 42//2 40//2
f 42//1 41//1 43//1 44//1
f 41//5 39//5 35//5 43//5
f 40//6 42//6 44//6 36//6
f 39//3 40//3 36//3 35//3
f 48//4 47//4 46//4 45//4
f 37//3 38//3 47//3 48//3
f 33//5 37//5 48//5 45//5
f 34//1 33//1 45//1 46//1
f 38//6 34//6 46//6 47//6
f 72//3 74//3 9//3 13//3
f 73//3 75//3 65//3 50//3
f 79//3 81//3 71//3 68//3
f 78//3 80//3 70//3 67//3
f 80//3 77//3 69//3 70//3
f 81//3 78//3 67//3 71//3
f 68//3 71//3 75//3 73//3
f 93//2 92//2 85//2 56//2
f 70//3 69//3 76//3 74//3
f 92//2 91//2 83//2 85//2
f 66//3 15//3 78//3 81//3
f 11//3 51//3 77//3 80//3
f 15//3 11//3 80//3 78//3
f 49//3 66//3 81//3 79//3
f 55//2 84//2 89//2 87//2
f 82//2 53//2 86//2 88//2
f 87//2 89//2 92//2 93//2
f 88//2 86//2 90//2 91//2
f 140//7 141//7 143//7 142//7
f 117//6 94//6 133//6 131//6 129//6 127//6 125//6 123//6 121//6 119//6
f 96//8 97//8 99//8 98//8
f 135//5 136//5 138//5 140//5 142//5 144//5 146//5 148//5 150//5 152//5
f 128//1 129//1 131//1 130//1
f 98//9 99//9 101//9 100//9
f 144//10 145//10 147//10 146//10
f 126//11 127//11 129//11 128//11
f 100//3 101//3 103//3 102//3
f 146//11 147//11 149//11 148//11
f 124//10 125//10 127//10 126//10
f 102//7 103//7 105//7 104//7
f 148//1 149//1 151//1 150//1
f 122//12 123//12 125//12 124//12
f 104//12 105//12 107//12 106//12
f 137//6 134//6 153//6 151//6 149//6 147//6 145//6 143//6 141//6 139//6
f 120//7 121//7 123//7 122//7
f 106//10 107//10 109//10 108//10
f 95//5 116//5 118//5 120//5 122//5 124//5 126//5 128//5 130//5 132//5
f 118//3 119//3 121//3 120//3
f 108//11 109//11 111//11 110//11
f 132//13 133//13 94//13 95//13
f 116//9 117//9 119//9 118//9
f 110//1 111//1 113//1 112//1
f 99//6 97//6 115//6 113//6 111//6 109//6 107//6 105//6 103//6 101//6
f 95//8 94//8 117//8 116//8
f 112//14 113//14 115//14 114//14
f 142//12 143//12 145//12 144//12
f 130//14 131//14 133//14 132//14
f 114//13 115//13 97//13 96//13
f 96//5 98//5 100//5 102//5 104//5 106//5 108//5 110//5 112//5 114//5
f 138//3 139//3 141//3 140//3
f 152//13 153//13 134//13 135//13
f 136//9 137//9 139//9 138//9
f 135//8 134//8 137//8 136//8
f 150//14 151//14 153//14 152//14
f 154//8 155//8 157//8 156//8
f 156//9 157//9 159//9 158//9
f 158//3 159//3 161//3 160//3
f 160//7 161//7 163//7 162//7
f 162//12 163//12 165//12 164//12
f 164//10 165//10 167//10 166//10
f 166//11 167//11 169//11 168//11
f 168//1 169//1 171//1 170//1
f 157//6 155//6 173//6 171//6 169//6 167//6 165//6 163//6 161//6 159//6
f 170//14 171//14 173//14 172//14
f 172//13 173//13 155//13 154//13
f 154//5 156//5 158//5 160//5 162//5 164//5 166//5 168//5 170//5 172//5
