# Blender v2.78 (sub 0) OBJ File: 'lounge_16-jan-2019.blend'
# www.blender.org
mtllib lounge_02.mtl
o Cube.002_Cube.003
v -0.764820 -0.001322 -0.410000
v -0.784820 0.018678 -0.410000
v -0.784820 0.018678 -0.450000
v -0.764820 -0.001322 -0.450000
v 0.768299 -0.001322 -0.450000
v 0.788299 0.018678 -0.450000
v 0.788299 0.018678 -0.410000
v 0.768299 -0.001322 -0.410000
v 0.788299 0.778678 -0.498930
v 0.768299 0.778678 -0.518930
v 0.768299 0.798678 -0.498930
v 0.768299 0.018678 -0.518930
v 0.788299 0.018678 -0.498930
v 0.768299 -0.001322 -0.498930
v 0.768299 0.798678 -0.410000
v 0.788299 0.778678 -0.410000
v 0.788299 0.778678 -0.450000
v 0.768299 0.798678 -0.450000
v -0.784820 0.778678 -0.410000
v -0.764820 0.798678 -0.410000
v -0.764820 0.798678 -0.450000
v -0.784820 0.778678 -0.450000
v -0.764820 0.018678 -0.518930
v -0.764820 -0.001322 -0.498930
v -0.784820 0.018678 -0.498930
v -0.764820 0.778678 -0.518930
v -0.784820 0.778678 -0.498930
v -0.764820 0.798678 -0.498930
v -0.641594 0.798678 -0.410000
v -0.621594 0.778678 -0.410000
v -0.601594 0.778678 -0.430000
v -0.601594 0.798678 -0.450000
v -0.641594 0.798678 -0.450000
v 0.645073 0.798678 -0.410000
v 0.645073 0.798678 -0.450000
v 0.605073 0.798678 -0.450000
v 0.605073 0.778678 -0.430000
v 0.625073 0.778678 -0.410000
v 0.645073 -0.001322 -0.410000
v 0.625073 0.018678 -0.410000
v 0.605073 0.018678 -0.430000
v 0.605073 -0.001322 -0.450000
v 0.645073 -0.001322 -0.450000
v -0.641594 -0.001322 -0.410000
v -0.641594 -0.001322 -0.450000
v -0.601594 -0.001322 -0.450000
v -0.601594 0.018678 -0.430000
v -0.621594 0.018678 -0.410000
v -0.641594 0.778678 -0.518930
v -0.641594 0.798678 -0.498930
v -0.601594 0.798678 -0.498930
v -0.601594 0.778678 -0.518930
v 0.645073 0.778678 -0.518930
v 0.605073 0.778678 -0.518930
v 0.605073 0.798678 -0.498930
v 0.645073 0.798678 -0.498930
v 0.645073 0.018678 -0.518930
v 0.645073 -0.001322 -0.498930
v 0.605073 -0.001322 -0.498930
v 0.605073 0.018678 -0.518930
v -0.641594 0.018678 -0.518930
v -0.601594 0.018678 -0.518930
v -0.601594 -0.001322 -0.498930
v -0.641594 -0.001322 -0.498930
v 0.645073 0.798678 0.350000
v 0.625073 0.778678 0.350000
v 0.645073 0.778678 0.370000
v 0.768299 0.798678 0.350000
v 0.768299 0.778678 0.370000
v 0.788299 0.778678 0.350000
v -0.641594 -0.001322 0.350000
v -0.621594 0.018678 0.350000
v -0.641594 0.018678 0.370000
v -0.764820 -0.001322 0.350000
v -0.764820 0.018678 0.370000
v -0.784820 0.018678 0.350000
v -0.784820 0.778678 0.350000
v -0.764820 0.778678 0.370000
v -0.764820 0.798678 0.350000
v 0.788299 0.018678 0.350000
v 0.768299 0.018678 0.370000
v 0.768299 -0.001322 0.350000
v 0.645073 -0.001322 0.350000
v 0.645073 0.018678 0.370000
v 0.625073 0.018678 0.350000
v -0.641594 0.798678 0.350000
v -0.641594 0.778678 0.370000
v -0.621594 0.778678 0.350000
v 0.605073 0.018678 0.378155
v 0.605073 -0.001322 0.358155
v 0.625073 0.018678 0.358155
v -0.601594 0.018678 0.378155
v -0.621594 0.018678 0.358155
v -0.601594 -0.001322 0.358155
v 0.605073 0.018678 -0.424003
v 0.625073 0.018678 -0.404003
v 0.605073 -0.001322 -0.404003
v -0.601594 0.018678 -0.424003
v -0.601594 -0.001322 -0.404003
v -0.621594 0.018678 -0.404003
v 0.605073 0.315576 0.378155
v 0.625073 0.315576 0.358155
v 0.605073 0.335576 0.358155
v -0.601594 0.315576 0.378155
v -0.601594 0.335576 0.358155
v -0.621594 0.315576 0.358155
v 0.605073 0.315576 -0.424003
v 0.605073 0.335576 -0.404003
v 0.625073 0.315576 -0.404003
v -0.601594 0.315576 -0.424003
v -0.621594 0.315576 -0.404003
v -0.601594 0.335576 -0.404003
v -0.621594 0.360507 0.358155
v -0.601594 0.340507 0.358155
v -0.601594 0.360507 0.378155
v -0.601594 0.484513 0.378155
v -0.601594 0.504514 0.358155
v -0.621594 0.484513 0.358155
v -0.018260 0.360507 0.378155
v -0.018260 0.340507 0.358155
v 0.001740 0.360507 0.358155
v -0.601594 0.484513 -0.424003
v -0.621594 0.484513 -0.404003
v -0.601594 0.504514 -0.404003
v -0.018260 0.484513 0.378155
v 0.001740 0.484513 0.358155
v -0.018260 0.504514 0.358155
v -0.018260 0.484513 -0.424003
v -0.018260 0.504514 -0.404003
v 0.001740 0.484513 -0.404003
v -0.018260 0.360507 -0.424003
v 0.001740 0.360507 -0.404003
v -0.018260 0.340507 -0.404003
v -0.621594 0.360507 -0.404003
v -0.601594 0.360507 -0.424003
v -0.601594 0.340507 -0.404003
v 0.003139 0.360507 0.358155
v 0.023139 0.340507 0.358155
v 0.023139 0.360507 0.378155
v 0.023139 0.484513 0.378155
v 0.023139 0.504514 0.358155
v 0.003139 0.484513 0.358155
v 0.606472 0.360507 0.378155
v 0.606472 0.340507 0.358155
v 0.626472 0.360507 0.358155
v 0.023139 0.484513 -0.424003
v 0.003139 0.484513 -0.404003
v 0.023139 0.504514 -0.404003
v 0.606472 0.484513 0.378155
v 0.626472 0.484513 0.358155
v 0.606472 0.504514 0.358155
v 0.606472 0.484513 -0.424003
v 0.606472 0.504514 -0.404003
v 0.626472 0.484513 -0.404003
v 0.606472 0.360507 -0.424003
v 0.626472 0.360507 -0.404003
v 0.606472 0.340507 -0.404003
v 0.003139 0.360507 -0.404003
v 0.023139 0.360507 -0.424003
v 0.023139 0.340507 -0.404003
v -0.621594 0.912698 -0.255164
v -0.601594 0.915568 -0.235371
v -0.601594 0.932492 -0.258033
v -0.601594 0.909218 -0.418590
v -0.601594 0.886555 -0.435514
v -0.621594 0.889424 -0.415721
v -0.018260 0.932492 -0.258033
v -0.018260 0.915568 -0.235371
v 0.001740 0.912698 -0.255164
v -0.601594 0.513813 -0.361273
v -0.621594 0.533606 -0.364142
v -0.601594 0.530737 -0.383935
v -0.018260 0.909218 -0.418590
v 0.001740 0.889424 -0.415721
v -0.018260 0.886555 -0.435514
v -0.018260 0.513813 -0.361273
v -0.018260 0.530737 -0.383935
v 0.001740 0.533606 -0.364142
v -0.018260 0.537087 -0.200716
v 0.001740 0.556880 -0.203585
v -0.018260 0.559749 -0.183792
v -0.621594 0.556880 -0.203585
v -0.601594 0.537087 -0.200716
v -0.601594 0.559749 -0.183792
v 0.003139 0.912698 -0.255164
v 0.023139 0.915568 -0.235371
v 0.023139 0.932492 -0.258033
v 0.023139 0.909218 -0.418590
v 0.023139 0.886555 -0.435514
v 0.003139 0.889424 -0.415721
v 0.606472 0.932492 -0.258033
v 0.606472 0.915568 -0.235371
v 0.626472 0.912698 -0.255164
v 0.023139 0.513813 -0.361273
v 0.003139 0.533606 -0.364142
v 0.023139 0.530737 -0.383935
v 0.606472 0.909218 -0.418590
v 0.626472 0.889424 -0.415721
v 0.606472 0.886555 -0.435514
v 0.606472 0.513813 -0.361273
v 0.606472 0.530737 -0.383935
v 0.626472 0.533606 -0.364142
v 0.606472 0.537087 -0.200716
v 0.626472 0.556880 -0.203585
v 0.606472 0.559749 -0.183792
v 0.003139 0.556880 -0.203585
v 0.023139 0.537087 -0.200716
v 0.023139 0.559749 -0.183792
vn 0.0000 1.0000 0.0000
vn 1.0000 0.0000 0.0000
vn -1.0000 0.0000 0.0000
vn -0.0000 -1.0000 0.0000
vn 0.0000 0.0000 -1.0000
vn 0.0000 0.0000 1.0000
vn 0.0000 0.1435 0.9897
vn 0.0000 0.9897 -0.1435
vn 0.0000 -0.1435 -0.9897
vn 0.0000 -0.9897 0.1435
vn -0.7071 -0.7071 -0.0000
vn 0.7071 -0.7071 -0.0000
vn 0.5774 0.5774 -0.5774
vn 0.5774 -0.5773 -0.5773
vn 0.7071 0.7071 0.0000
vn -0.7071 0.7071 0.0000
vn -0.5774 -0.5774 -0.5773
vn -0.5773 0.5774 -0.5773
vn 0.3665 0.8552 0.3665
vn -0.3665 0.8552 0.3665
vn -0.3665 -0.8552 0.3665
vn 0.3665 -0.8552 0.3665
vn 0.0000 0.7071 -0.7071
vn 0.0000 -0.7071 -0.7071
vn -0.5774 0.5774 0.5773
vn 0.5774 0.5773 0.5773
vn 0.5774 -0.5773 0.5774
vn -0.5774 -0.5774 0.5773
vn 0.5774 -0.5773 0.5773
vn -0.5774 -0.5773 0.5774
vn 0.5774 0.5773 0.5774
vn 0.5774 0.5773 -0.5774
vn -0.5774 0.5774 -0.5773
vn -0.5774 0.5774 0.5774
vn -0.5774 0.5774 -0.5774
vn 0.5774 -0.5773 -0.5774
vn -0.5774 0.5773 0.5774
vn 0.5774 -0.5774 0.5773
vn -0.5774 0.5773 -0.5774
vn 0.5774 0.5774 0.5774
vn 0.5774 -0.5774 -0.5773
vn -0.5774 -0.5773 -0.5774
vn -0.5774 0.6542 0.4885
vn -0.5773 0.4885 -0.6542
vn 0.5774 0.6542 0.4885
vn -0.5774 -0.6542 -0.4886
vn 0.5773 0.4886 -0.6542
vn 0.5774 -0.6542 -0.4886
vn 0.5774 -0.4886 0.6542
vn -0.5774 -0.4885 0.6542
vn -0.5773 0.4886 -0.6542
vn 0.5773 0.4885 -0.6542
vn 0.5773 -0.4886 0.6542
vn -0.5774 -0.4886 0.6542
vn -0.7071 0.0000 -0.7071
vn 0.7071 0.0000 -0.7071
vn 0.0000 0.7071 0.7071
vn 0.0000 -0.7071 0.7071
vn -0.7071 0.0000 0.7071
vn 0.7071 -0.0000 0.7071
vn 0.0000 0.5984 -0.8012
vn 0.0000 -0.8012 -0.5984
vn -0.7071 0.1014 0.6998
vn -0.7071 -0.1014 -0.6998
vn 0.0000 -0.5984 0.8012
vn 0.0000 0.8012 0.5984
vn 0.7071 -0.1014 -0.6998
vn 0.7071 0.1014 0.6998
vn -0.7071 0.6998 -0.1014
vn 0.7071 0.6998 -0.1014
vn -0.7071 -0.6998 0.1014
vn 0.7071 -0.6998 0.1014
usemtl None
s off
f 55//1 51//1 32//1 36//1
f 7//2 16//2 70//2 80//2
f 25//3 3//3 22//3 27//3
f 19//3 2//3 76//3 77//3
f 45//4 4//4 24//4 64//4
f 29//1 20//1 79//1 86//1
f 12//5 57//5 53//5 10//5
f 37//6 31//6 47//6 41//6
f 39//4 8//4 82//4 83//4
f 60//5 62//5 52//5 54//5
f 11//1 56//1 35//1 18//1
f 48//2 30//2 88//2 72//2
f 15//1 34//1 65//1 68//1
f 69//6 67//6 84//6 81//6
f 90//4 94//4 99//4 97//4
f 87//6 78//6 75//6 73//6
f 42//4 46//4 63//4 59//4
f 61//5 23//5 26//5 49//5
f 13//2 9//2 17//2 6//2
f 50//1 28//1 21//1 33//1
f 5//4 43//4 58//4 14//4
f 38//3 40//3 85//3 66//3
f 96//2 109//2 102//2 91//2
f 120//4 114//4 136//4 133//4
f 103//1 108//1 112//1 105//1
f 89//6 101//6 104//6 92//6
f 93//3 106//3 111//3 100//3
f 98//5 110//5 107//5 95//5
f 130//2 126//2 121//2 132//2
f 125//6 116//6 115//6 119//6
f 118//3 123//3 134//3 113//3
f 127//1 129//1 124//1 117//1
f 144//4 138//4 160//4 157//4
f 122//5 128//5 131//5 135//5
f 154//2 150//2 145//2 156//2
f 149//6 140//6 139//6 143//6
f 142//3 147//3 158//3 137//3
f 151//1 153//1 148//1 141//1
f 168//7 162//7 184//7 181//7
f 146//5 152//5 155//5 159//5
f 178//2 174//2 169//2 180//2
f 173//8 164//8 163//8 167//8
f 166//3 171//3 182//3 161//3
f 175//9 177//9 172//9 165//9
f 192//7 186//7 208//7 205//7
f 170//10 176//10 179//10 183//10
f 202//2 198//2 193//2 204//2
f 197//8 188//8 187//8 191//8
f 190//3 195//3 206//3 185//3
f 199//9 201//9 196//9 189//9
f 194//10 200//10 203//10 207//10
f 1//11 2//11 3//11 4//11
f 5//12 6//12 7//12 8//12
f 9//13 10//13 11//13
f 12//14 13//14 14//14
f 15//15 16//15 17//15 18//15
f 19//16 20//16 21//16 22//16
f 23//17 24//17 25//17
f 26//18 27//18 28//18
f 29//19 30//19 31//19 32//19 33//19
f 34//20 35//20 36//20 37//20 38//20
f 39//21 40//21 41//21 42//21 43//21
f 44//22 45//22 46//22 47//22 48//22
f 49//23 50//23 51//23 52//23
f 53//23 54//23 55//23 56//23
f 57//24 58//24 59//24 60//24
f 61//24 62//24 63//24 64//24
f 65//25 66//25 67//25
f 68//26 69//26 70//26
f 71//27 72//27 73//27
f 74//28 75//28 76//28
f 77//25 78//25 79//25
f 80//29 81//29 82//29
f 83//30 84//30 85//30
f 86//26 87//26 88//26
f 89//27 90//27 91//27
f 92//28 93//28 94//28
f 95//14 96//14 97//14
f 98//17 99//17 100//17
f 101//31 102//31 103//31
f 104//25 105//25 106//25
f 107//32 108//32 109//32
f 110//33 111//33 112//33
f 113//28 114//28 115//28
f 116//34 117//34 118//34
f 119//27 120//27 121//27
f 122//35 123//35 124//35
f 125//31 126//31 127//31
f 128//32 129//32 130//32
f 131//36 132//36 133//36
f 134//17 135//17 136//17
f 137//30 138//30 139//30
f 140//37 141//37 142//37
f 143//38 144//38 145//38
f 146//39 147//39 148//39
f 149//40 150//40 151//40
f 152//13 153//13 154//13
f 155//41 156//41 157//41
f 158//42 159//42 160//42
f 161//43 162//43 163//43
f 164//44 165//44 166//44
f 167//45 168//45 169//45
f 170//46 171//46 172//46
f 173//47 174//47 175//47
f 176//48 177//48 178//48
f 179//49 180//49 181//49
f 182//50 183//50 184//50
f 185//43 186//43 187//43
f 188//51 189//51 190//51
f 191//45 192//45 193//45
f 194//46 195//46 196//46
f 197//52 198//52 199//52
f 200//48 201//48 202//48
f 203//53 204//53 205//53
f 206//54 207//54 208//54
f 34//1 15//1 18//1 35//1
f 44//4 1//4 4//4 45//4
f 22//3 3//3 2//3 19//3
f 26//55 23//55 25//55 27//55
f 3//11 25//11 24//11 4//11
f 11//15 18//15 17//15 9//15
f 56//23 11//23 10//23 53//23
f 27//16 22//16 21//16 28//16
f 64//24 24//24 23//24 61//24
f 9//56 13//56 12//56 10//56
f 5//12 14//12 13//12 6//12
f 16//2 7//2 6//2 17//2
f 8//4 39//4 43//4 5//4
f 20//1 29//1 33//1 21//1
f 31//57 37//57 36//57 32//57
f 41//58 47//58 46//58 42//58
f 28//23 50//23 49//23 26//23
f 51//23 55//23 54//23 52//23
f 14//24 58//24 57//24 12//24
f 59//24 63//24 62//24 60//24
f 55//1 36//1 35//1 56//1
f 50//1 33//1 32//1 51//1
f 42//4 59//4 58//4 43//4
f 45//4 64//4 63//4 46//4
f 37//59 41//59 40//59 38//59
f 30//60 48//60 47//60 31//60
f 60//5 54//5 53//5 57//5
f 61//5 49//5 52//5 62//5
f 67//57 69//57 68//57 65//57
f 73//58 75//58 74//58 71//58
f 77//59 76//59 75//59 78//59
f 69//60 81//60 80//60 70//60
f 81//58 84//58 83//58 82//58
f 78//57 87//57 86//57 79//57
f 66//59 85//59 84//59 67//59
f 87//60 73//60 72//60 88//60
f 7//12 80//12 82//12 8//12
f 85//11 40//11 39//11 83//11
f 48//12 72//12 71//12 44//12
f 76//11 2//11 1//11 74//11
f 65//16 34//16 38//16 66//16
f 19//16 77//16 79//16 20//16
f 88//15 30//15 29//15 86//15
f 70//15 16//15 15//15 68//15
f 89//58 92//58 94//58 90//58
f 97//24 99//24 98//24 95//24
f 90//12 97//12 96//12 91//12
f 93//11 100//11 99//11 94//11
f 103//57 105//57 104//57 101//57
f 107//23 110//23 112//23 108//23
f 102//15 109//15 108//15 103//15
f 105//16 112//16 111//16 106//16
f 95//56 107//56 109//56 96//56
f 110//55 98//55 100//55 111//55
f 91//60 102//60 101//60 89//60
f 92//59 104//59 106//59 93//59
f 127//57 117//57 116//57 125//57
f 128//23 122//23 124//23 129//23
f 113//11 134//11 136//11 114//11
f 117//16 124//16 123//16 118//16
f 133//24 136//24 135//24 131//24
f 119//58 115//58 114//58 120//58
f 126//15 130//15 129//15 127//15
f 120//12 133//12 132//12 121//12
f 118//59 113//59 115//59 116//59
f 121//60 126//60 125//60 119//60
f 122//55 135//55 134//55 123//55
f 130//56 132//56 131//56 128//56
f 151//57 141//57 140//57 149//57
f 152//23 146//23 148//23 153//23
f 137//11 158//11 160//11 138//11
f 141//16 148//16 147//16 142//16
f 157//24 160//24 159//24 155//24
f 143//58 139//58 138//58 144//58
f 150//15 154//15 153//15 151//15
f 144//12 157//12 156//12 145//12
f 142//59 137//59 139//59 140//59
f 145//60 150//60 149//60 143//60
f 146//55 159//55 158//55 147//55
f 154//56 156//56 155//56 152//56
f 175//61 165//61 164//61 173//61
f 176//62 170//62 172//62 177//62
f 161//63 182//63 184//63 162//63
f 165//64 172//64 171//64 166//64
f 181//65 184//65 183//65 179//65
f 167//66 163//66 162//66 168//66
f 174//67 178//67 177//67 175//67
f 168//68 181//68 180//68 169//68
f 166//69 161//69 163//69 164//69
f 169//70 174//70 173//70 167//70
f 170//71 183//71 182//71 171//71
f 178//72 180//72 179//72 176//72
f 199//61 189//61 188//61 197//61
f 200//62 194//62 196//62 201//62
f 185//63 206//63 208//63 186//63
f 189//64 196//64 195//64 190//64
f 205//65 208//65 207//65 203//65
f 191//66 187//66 186//66 192//66
f 198//67 202//67 201//67 199//67
f 192//68 205//68 204//68 193//68
f 190//69 185//69 187//69 188//69
f 193//70 198//70 197//70 191//70
f 194//71 207//71 206//71 195//71
f 202//72 204//72 203//72 200//72
f 1//4 44//4 71//4 74//4
