{"asset":{"generator":"3D Builder","version":"2.0"},"scene":0,"scenes":[{"nodes":[0,1,2,3,4,5,6,7,8,9,10,11,12,13,14,15,16,22,26]}],"nodes":[{"mesh":0,"matrix":[1,0,0,0,0,-1.1920928955078125E-7,-0.99999988079071045,0,0,0.99999988079071045,-1.1920928955078125E-7,0,0.19877196848392487,1.0284570455551147,0.15898977220058441,1]},{"mesh":1,"matrix":[1,0,0,0,0,-1.1920928955078125E-7,-0.99999988079071045,0,0,0.99999988079071045,-1.1920928955078125E-7,0,0.19877196848392487,1.0284570455551147,0.15898977220058441,1]},{"mesh":2,"matrix":[1,0,0,0,0,-1.1920928955078125E-7,-0.99999988079071045,0,0,0.99999988079071045,-1.1920928955078125E-7,0,0.19877196848392487,1.0284570455551147,0.15898977220058441,1]},{"mesh":3,"matrix":[1,0,0,0,0,-1.1920928955078125E-7,-0.99999988079071045,0,0,0.99999988079071045,-1.1920928955078125E-7,0,0.19877196848392487,1.0284570455551147,0.15898977220058441,1]},{"mesh":4,"matrix":[1,0,0,0,0,-1.1920928955078125E-7,-0.99999988079071045,0,0,0.99999988079071045,-1.1920928955078125E-7,0,0.19877196848392487,1.0284570455551147,0.15898977220058441,1]},{"mesh":5,"matrix":[1,0,0,0,0,-1.1920928955078125E-7,-0.99999988079071045,0,0,0.99999988079071045,-1.1920928955078125E-7,0,0.19877196848392487,1.0284570455551147,0.15898977220058441,1]},{"mesh":6,"matrix":[1,0,0,0,0,-1.1920928955078125E-7,-0.99999988079071045,0,0,0.99999988079071045,-1.1920928955078125E-7,0,0.19877196848392487,1.0284570455551147,0.15898977220058441,1]},{"mesh":7,"matrix":[1,0,0,0,0,-1.1920928955078125E-7,-0.99999988079071045,0,0,0.99999988079071045,-1.1920928955078125E-7,0,0.19877196848392487,1.0284570455551147,0.15898977220058441,1]},{"mesh":8,"matrix":[1,0,0,0,0,-1.1920928955078125E-7,-0.99999988079071045,0,0,0.99999988079071045,-1.1920928955078125E-7,0,0.19877196848392487,1.0284570455551147,0.15898977220058441,1]},{"mesh":9,"matrix":[1,0,0,0,0,-1.1920928955078125E-7,-0.99999988079071045,0,0,0.99999988079071045,-1.1920928955078125E-7,0,0.19877196848392487,1.0284570455551147,0.15898977220058441,1]},{"mesh":10,"matrix":[1,0,0,0,0,-1.1920928955078125E-7,-0.99999988079071045,0,0,0.99999988079071045,-1.1920928955078125E-7,0,0.19877196848392487,1.0284570455551147,0.15898977220058441,1]},{"mesh":11,"matrix":[1,0,0,0,0,-1.1920928955078125E-7,-0.99999988079071045,0,0,0.99999988079071045,-1.1920928955078125E-7,0,0.19877196848392487,1.0284570455551147,0.15898977220058441,1]},{"mesh":12,"matrix":[1,0,0,0,0,-1.1920928955078125E-7,-0.99999988079071045,0,0,0.99999988079071045,-1.1920928955078125E-7,0,0.19877196848392487,1.0284570455551147,0.15898977220058441,1]},{"mesh":13,"matrix":[1,0,0,0,0,-1.1920928955078125E-7,-0.99999988079071045,0,0,0.99999988079071045,-1.1920928955078125E-7,0,0.19877196848392487,1.0284570455551147,0.15898977220058441,1]},{"mesh":14,"matrix":[1,0,0,0,0,-1.1920928955078125E-7,-0.99999988079071045,0,0,0.99999988079071045,-1.1920928955078125E-7,0,0.19877196848392487,1.0284570455551147,0.15898977220058441,1]},{"mesh":15,"matrix":[0.99999994039535522,0,0,0,0,-1.1920928244535389E-7,-0.99999982118606567,0,0,0.99999982118606567,-1.1920928244535389E-7,0,0.19877196848392487,1.0284570455551147,0.15898975729942322,1]},{"children":[17,18,19,20,21]},{"mesh":16,"matrix":[0.99999994039535522,0,0,0,0,-1.1920928244535389E-7,-0.99999982118606567,0,0,0.99999982118606567,-1.1920928244535389E-7,0,0.19877196848392487,1.0284570455551147,0.15898975729942322,1]},{"mesh":17,"matrix":[0.99999994039535522,0,0,0,0,-1.1920928244535389E-7,-0.99999982118606567,0,0,0.99999982118606567,-1.1920928244535389E-7,0,0.19877196848392487,1.0284570455551147,0.15898975729942322,1]},{"mesh":18,"matrix":[0.99999994039535522,0,0,0,0,-1.1920928244535389E-7,-0.99999982118606567,0,0,0.99999982118606567,-1.1920928244535389E-7,0,0.19877196848392487,1.0284570455551147,0.15898975729942322,1]},{"mesh":19,"matrix":[0.99999994039535522,0,0,0,0,-1.1920928244535389E-7,-0.99999982118606567,0,0,0.99999982118606567,-1.1920928244535389E-7,0,0.19877196848392487,1.0284570455551147,0.15898975729942322,1]},{"mesh":20,"matrix":[0.99999994039535522,0,0,0,0,-1.1920928244535389E-7,-0.99999982118606567,0,0,0.99999982118606567,-1.1920928244535389E-7,0,0.19877196848392487,1.0284570455551147,0.15898975729942322,1]},{"children":[23,24,25]},{"mesh":21,"matrix":[0.99999994039535522,0,0,0,0,-1.1920928244535389E-7,-0.99999982118606567,0,0,0.99999982118606567,-1.1920928244535389E-7,0,0.19877196848392487,1.0284570455551147,0.15898975729942322,1]},{"mesh":22,"matrix":[0.99999994039535522,0,0,0,0,-1.1920928244535389E-7,-0.99999982118606567,0,0,0.99999982118606567,-1.1920928244535389E-7,0,0.19877196848392487,1.0284570455551147,0.15898975729942322,1]},{"mesh":23,"matrix":[0.99999994039535522,0,0,0,0,-1.1920928244535389E-7,-0.99999982118606567,0,0,0.99999982118606567,-1.1920928244535389E-7,0,0.19877196848392487,1.0284570455551147,0.15898975729942322,1]},{"mesh":24,"matrix":[0.99999994039535522,0,0,0,0,-1.1920928244535389E-7,-0.99999982118606567,0,0,0.99999982118606567,-1.1920928244535389E-7,0,0.19877196848392487,1.0284570455551147,0.15898975729942322,1]}],"meshes":[{"primitives":[{"attributes":{"POSITION":0},"mode":4,"indices":1}]},{"primitives":[{"attributes":{"POSITION":2},"mode":4,"indices":3}]},{"primitives":[{"attributes":{"POSITION":4},"mode":4,"indices":5}]},{"primitives":[{"attributes":{"POSITION":6},"mode":4,"indices":7}]},{"primitives":[{"attributes":{"POSITION":8},"mode":4,"indices":9}]},{"primitives":[{"attributes":{"POSITION":10},"mode":4,"indices":11}]},{"primitives":[{"attributes":{"POSITION":12},"mode":4,"indices":13}]},{"primitives":[{"attributes":{"POSITION":14},"mode":4,"indices":15}]},{"primitives":[{"attributes":{"POSITION":16},"mode":4,"indices":17}]},{"primitives":[{"attributes":{"POSITION":18},"mode":4,"indices":19}]},{"primitives":[{"attributes":{"POSITION":20},"mode":4,"indices":21}]},{"primitives":[{"attributes":{"POSITION":22},"mode":4,"indices":23}]},{"primitives":[{"attributes":{"POSITION":24},"mode":4,"indices":25}]},{"primitives":[{"attributes":{"POSITION":26},"mode":4,"indices":27}]},{"primitives":[{"attributes":{"POSITION":28},"mode":4,"indices":29}]},{"primitives":[{"attributes":{"POSITION":30},"mode":4,"indices":31}]},{"primitives":[{"attributes":{"POSITION":32},"mode":4,"indices":33}]},{"primitives":[{"attributes":{"POSITION":34},"mode":4,"indices":35}]},{"primitives":[{"attributes":{"POSITION":36},"mode":4,"indices":37}]},{"primitives":[{"attributes":{"POSITION":38},"mode":4,"indices":39}]},{"primitives":[{"attributes":{"POSITION":40},"mode":4,"indices":41}]},{"primitives":[{"attributes":{"POSITION":42},"mode":4,"indices":43}]},{"primitives":[{"attributes":{"POSITION":44},"mode":4,"indices":45}]},{"primitives":[{"attributes":{"POSITION":46},"mode":4,"indices":47}]},{"primitives":[{"attributes":{"POSITION":48},"mode":4,"indices":49}]}],"accessors":[{"bufferView":0,"byteOffset":0,"count":92,"componentType":5126,"type":"VEC3","min":[-4.5345096588134766,-4.2113142013549805,-1.0000003576278687],"max":[1.7911790609359741,1.9915273189544678,1]},{"bufferView":1,"byteOffset":0,"count":492,"componentType":5125,"type":"SCALAR"},{"bufferView":2,"byteOffset":0,"count":16,"componentType":5126,"type":"VEC3","min":[-0.27990508079528809,-2.0115559101104736,0.086039304733276367],"max":[-0.054872274398803711,-1.9973022937774658,0.37431246042251587]},{"bufferView":3,"byteOffset":0,"count":84,"componentType":5125,"type":"SCALAR"},{"bufferView":4,"byteOffset":0,"count":40,"componentType":5126,"type":"VEC3","min":[-0.28499007225036621,-2.0141267776489258,0.0810014009475708],"max":[-0.049787282943725586,-1.9925563335418701,0.20063656568527222]},{"bufferView":5,"byteOffset":0,"count":228,"componentType":5125,"type":"SCALAR"},{"bufferView":6,"byteOffset":0,"count":108,"componentType":5126,"type":"VEC3","min":[-1.9098474979400635,-1.9181784391403198,-1.0034120082855225],"max":[-0.49162721633911133,-1.5236010551452637,0.13185453414916992]},{"bufferView":7,"byteOffset":0,"count":504,"componentType":5125,"type":"SCALAR"},{"bufferView":8,"byteOffset":0,"count":48,"componentType":5126,"type":"VEC3","min":[-4.5296192169189453,0.29498890042304993,-1.0037163496017456],"max":[-4.0240225791931152,0.74981886148452759,-0.56026256084442139]},{"bufferView":9,"byteOffset":0,"count":264,"componentType":5125,"type":"SCALAR"},{"bufferView":10,"byteOffset":0,"count":32,"componentType":5126,"type":"VEC3","min":[-1.4598488807678223,3.505162239074707,0.39096203446388245],"max":[0.98333734273910522,3.8606488704681396,0.97144925594329834]},{"bufferView":11,"byteOffset":0,"count":144,"componentType":5125,"type":"SCALAR"},{"bufferView":12,"byteOffset":0,"count":8,"componentType":5126,"type":"VEC3","min":[1.0088698863983154,3.2606489658355713,0.45847687125205994],"max":[1.6197547912597656,3.8606488704681396,0.94533121585845947]},{"bufferView":13,"byteOffset":0,"count":36,"componentType":5125,"type":"SCALAR"},{"bufferView":14,"byteOffset":0,"count":24,"componentType":5126,"type":"VEC3","min":[-4.759526252746582,-5.15383768081665,0.81101429462432861],"max":[4.7588953971862793,5.4882497787475586,1.2757078409194946]},{"bufferView":15,"byteOffset":0,"count":120,"componentType":5125,"type":"SCALAR"},{"bufferView":16,"byteOffset":0,"count":8,"componentType":5126,"type":"VEC3","min":[-2.5246350765228271,3.2606487274169922,-0.9999995231628418],"max":[-1.8600571155548096,3.8606488704681396,0.95223778486251831]},{"bufferView":17,"byteOffset":0,"count":36,"componentType":5125,"type":"SCALAR"},{"bufferView":18,"byteOffset":0,"count":8,"componentType":5126,"type":"VEC3","min":[-1.8276137113571167,3.2606487274169922,-0.9999995231628418],"max":[-1.4833539724349976,3.8606488704681396,0.99500471353530884]},{"bufferView":19,"byteOffset":0,"count":36,"componentType":5125,"type":"SCALAR"},{"bufferView":20,"byteOffset":0,"count":12,"componentType":5126,"type":"VEC3","min":[-0.73034763336181641,3.2606489658355713,-0.9999995231628418],"max":[-0.2025432288646698,3.8606488704681396,-0.14354586601257324]},{"bufferView":21,"byteOffset":0,"count":60,"componentType":5125,"type":"SCALAR"},{"bufferView":22,"byteOffset":0,"count":272,"componentType":5126,"type":"VEC3","min":[-0.19433268904685974,3.2223448753356934,-0.9999995231628418],"max":[0.36095139384269714,3.8606488704681396,-0.13354593515396118]},{"bufferView":23,"byteOffset":0,"count":1428,"componentType":5125,"type":"SCALAR"},{"bufferView":24,"byteOffset":0,"count":8,"componentType":5126,"type":"VEC3","min":[0.3674595057964325,3.2606489658355713,-0.9999995231628418],"max":[0.97834432125091553,3.8606488704681396,-0.14354586601257324]},{"bufferView":25,"byteOffset":0,"count":36,"componentType":5125,"type":"SCALAR"},{"bufferView":26,"byteOffset":0,"count":8,"componentType":5126,"type":"VEC3","min":[1.0088698863983154,3.2606487274169922,-0.9999995231628418],"max":[1.6197547912597656,3.8606488704681396,0.43450897932052612]},{"bufferView":27,"byteOffset":0,"count":36,"componentType":5125,"type":"SCALAR"},{"bufferView":28,"byteOffset":0,"count":128,"componentType":5126,"type":"VEC3","min":[0.68861263990402222,-4.9674234390258789,-1.0034123659133911],"max":[1.6994547843933105,-3.6422157287597656,-0.09108501672744751]},{"bufferView":29,"byteOffset":0,"count":636,"componentType":5125,"type":"SCALAR"},{"bufferView":30,"byteOffset":0,"count":1064,"componentType":5126,"type":"VEC3","min":[-1.4587674140930176,3.2606489658355713,-0.99999958276748657],"max":[-0.75694960355758667,3.8606448173522949,0.10526013374328613]},{"bufferView":31,"byteOffset":0,"count":6372,"componentType":5125,"type":"SCALAR"},{"bufferView":32,"byteOffset":0,"count":353,"componentType":5126,"type":"VEC3","min":[0.3390292227268219,-0.088905483484268188,-1.0122061967849731],"max":[1.0044196844100952,0.5764850378036499,-0.099894046783447266]},{"bufferView":33,"byteOffset":0,"count":2142,"componentType":5125,"type":"SCALAR"},{"bufferView":34,"byteOffset":0,"count":366,"componentType":5126,"type":"VEC3","min":[1.0512121915817261,-0.095918506383895874,-1.0122061967849731],"max":[1.7154875993728638,0.57003635168075562,-0.099894046783447266]},{"bufferView":35,"byteOffset":0,"count":2220,"componentType":5125,"type":"SCALAR"},{"bufferView":36,"byteOffset":0,"count":370,"componentType":5126,"type":"VEC3","min":[1.036250114440918,0.61702150106430054,-1.0122061967849731],"max":[1.7021636962890625,1.2796453237533569,-0.099894046783447266]},{"bufferView":37,"byteOffset":0,"count":2244,"componentType":5125,"type":"SCALAR"},{"bufferView":38,"byteOffset":0,"count":351,"componentType":5126,"type":"VEC3","min":[0.34882953763008118,0.6045989990234375,-1.0122061967849731],"max":[1.0134905576705933,1.2704436779022217,-0.099894046783447266]},{"bufferView":39,"byteOffset":0,"count":2130,"componentType":5125,"type":"SCALAR"},{"bufferView":40,"byteOffset":0,"count":1121,"componentType":5126,"type":"VEC3","min":[0.43879443407058716,-0.0061876298859715462,-1.001786470413208],"max":[1.6228110790252686,1.1778565645217896,-0.36100009083747864]},{"bufferView":41,"byteOffset":0,"count":6714,"componentType":5125,"type":"SCALAR"},{"bufferView":42,"byteOffset":0,"count":466,"componentType":5126,"type":"VEC3","min":[-1.5730406045913696,-5.0033373832702637,-1.0000004768371582],"max":[0.18574048578739166,-2.6913721561431885,-0.44941768050193787]},{"bufferView":43,"byteOffset":0,"count":2784,"componentType":5125,"type":"SCALAR"},{"bufferView":44,"byteOffset":0,"count":82,"componentType":5126,"type":"VEC3","min":[-1.4253870248794556,-4.9092288017272949,-0.44473597407341003],"max":[-0.76593375205993652,-4.4116244316101074,-0.33510255813598633]},{"bufferView":45,"byteOffset":0,"count":480,"componentType":5125,"type":"SCALAR"},{"bufferView":46,"byteOffset":0,"count":82,"componentType":5126,"type":"VEC3","min":[-0.61463868618011475,-4.9092288017272949,-0.44473597407341003],"max":[0.0448145754635334,-4.4116244316101074,-0.33510255813598633]},{"bufferView":47,"byteOffset":0,"count":480,"componentType":5125,"type":"SCALAR"},{"bufferView":48,"byteOffset":0,"count":619,"componentType":5126,"type":"VEC3","min":[-4.75952672958374,-5.15383768081665,-1.0284571647644043],"max":[4.7456660270690918,5.4898591041564941,0.9999651312828064]},{"bufferView":49,"byteOffset":0,"count":3798,"componentType":5125,"type":"SCALAR"}],"bufferViews":[{"buffer":0,"byteOffset":0,"byteLength":1104,"byteStride":12,"target":34962},{"buffer":0,"byteOffset":1104,"byteLength":1968,"target":34963},{"buffer":0,"byteOffset":3072,"byteLength":192,"byteStride":12,"target":34962},{"buffer":0,"byteOffset":3264,"byteLength":336,"target":34963},{"buffer":0,"byteOffset":3600,"byteLength":480,"byteStride":12,"target":34962},{"buffer":0,"byteOffset":4080,"byteLength":912,"target":34963},{"buffer":0,"byteOffset":4992,"byteLength":1296,"byteStride":12,"target":34962},{"buffer":0,"byteOffset":6288,"byteLength":2016,"target":34963},{"buffer":0,"byteOffset":8304,"byteLength":576,"byteStride":12,"target":34962},{"buffer":0,"byteOffset":8880,"byteLength":1056,"target":34963},{"buffer":0,"byteOffset":9936,"byteLength":384,"byteStride":12,"target":34962},{"buffer":0,"byteOffset":10320,"byteLength":576,"target":34963},{"buffer":0,"byteOffset":10896,"byteLength":96,"byteStride":12,"target":34962},{"buffer":0,"byteOffset":10992,"byteLength":144,"target":34963},{"buffer":0,"byteOffset":11136,"byteLength":288,"byteStride":12,"target":34962},{"buffer":0,"byteOffset":11424,"byteLength":480,"target":34963},{"buffer":0,"byteOffset":11904,"byteLength":96,"byteStride":12,"target":34962},{"buffer":0,"byteOffset":12000,"byteLength":144,"target":34963},{"buffer":0,"byteOffset":12144,"byteLength":96,"byteStride":12,"target":34962},{"buffer":0,"byteOffset":12240,"byteLength":144,"target":34963},{"buffer":0,"byteOffset":12384,"byteLength":144,"byteStride":12,"target":34962},{"buffer":0,"byteOffset":12528,"byteLength":240,"target":34963},{"buffer":0,"byteOffset":12768,"byteLength":3264,"byteStride":12,"target":34962},{"buffer":0,"byteOffset":16032,"byteLength":5712,"target":34963},{"buffer":0,"byteOffset":21744,"byteLength":96,"byteStride":12,"target":34962},{"buffer":0,"byteOffset":21840,"byteLength":144,"target":34963},{"buffer":0,"byteOffset":21984,"byteLength":96,"byteStride":12,"target":34962},{"buffer":0,"byteOffset":22080,"byteLength":144,"target":34963},{"buffer":0,"byteOffset":22224,"byteLength":1536,"byteStride":12,"target":34962},{"buffer":0,"byteOffset":23760,"byteLength":2544,"target":34963},{"buffer":0,"byteOffset":26304,"byteLength":12768,"byteStride":12,"target":34962},{"buffer":0,"byteOffset":39072,"byteLength":25488,"target":34963},{"buffer":0,"byteOffset":64560,"byteLength":4236,"byteStride":12,"target":34962},{"buffer":0,"byteOffset":68796,"byteLength":8568,"target":34963},{"buffer":0,"byteOffset":77364,"byteLength":4392,"byteStride":12,"target":34962},{"buffer":0,"byteOffset":81756,"byteLength":8880,"target":34963},{"buffer":0,"byteOffset":90636,"byteLength":4440,"byteStride":12,"target":34962},{"buffer":0,"byteOffset":95076,"byteLength":8976,"target":34963},{"buffer":0,"byteOffset":104052,"byteLength":4212,"byteStride":12,"target":34962},{"buffer":0,"byteOffset":108264,"byteLength":8520,"target":34963},{"buffer":0,"byteOffset":116784,"byteLength":13452,"byteStride":12,"target":34962},{"buffer":0,"byteOffset":130236,"byteLength":26856,"target":34963},{"buffer":0,"byteOffset":157092,"byteLength":5592,"byteStride":12,"target":34962},{"buffer":0,"byteOffset":162684,"byteLength":11136,"target":34963},{"buffer":0,"byteOffset":173820,"byteLength":984,"byteStride":12,"target":34962},{"buffer":0,"byteOffset":174804,"byteLength":1920,"target":34963},{"buffer":0,"byteOffset":176724,"byteLength":984,"byteStride":12,"target":34962},{"buffer":0,"byteOffset":177708,"byteLength":1920,"target":34963},{"buffer":0,"byteOffset":179628,"byteLength":7428,"byteStride":12,"target":34962},{"buffer":0,"byteOffset":187056,"byteLength":15192,"target":34963}],"buffers":[{"byteLength":202248,"uri":"OttoBrandt_2019-01-03.bin"}]}