# Blender v2.79 (sub 0) OBJ File: ''
# www.blender.org
mtllib pendantlampshade.mtl
o Cube
v -0.000000 -0.350603 -0.233456
v -0.137222 -0.350603 -0.188870
v -0.222030 -0.350603 0.072142
v -0.137222 -0.350603 0.188870
v -0.000000 -0.350603 0.233456
v 0.137222 -0.350603 0.188870
v 0.222029 -0.350603 0.072142
v 0.222029 -0.350603 -0.072142
v 0.137222 -0.350603 -0.188870
v -0.000000 -0.272079 -0.275833
v -0.162131 -0.272079 -0.223154
v -0.262333 -0.272079 -0.085237
v -0.262333 -0.272079 0.085237
v -0.162131 -0.272079 0.223154
v 0.000000 -0.272079 0.275833
v 0.162131 -0.272079 0.223154
v 0.262333 -0.272079 0.085237
v 0.262333 -0.272079 -0.085237
v 0.162131 -0.272079 -0.223154
v -0.000000 -0.167380 -0.275833
v -0.162131 -0.167380 -0.223154
v -0.262333 -0.167380 -0.085237
v -0.262333 -0.167380 0.085237
v -0.162131 -0.167380 0.223154
v 0.000000 -0.167380 0.275833
v 0.162131 -0.167380 0.223154
v 0.262333 -0.167380 0.085237
v 0.262333 -0.167380 -0.085237
v 0.162131 -0.167380 -0.223154
v -0.000000 -0.074181 -0.228117
v -0.134084 -0.074181 -0.184551
v -0.216952 -0.074181 -0.070492
v -0.216952 -0.074181 0.070492
v -0.134084 -0.074181 0.184551
v -0.000000 -0.074181 0.228117
v 0.134084 -0.074181 0.184551
v 0.216952 -0.074181 0.070492
v 0.216952 -0.074181 -0.070492
v 0.134084 -0.074181 -0.184551
v -0.000000 0.001544 -0.111035
v -0.065265 0.001544 -0.089829
v -0.105601 0.001544 -0.034312
v -0.105601 0.001544 0.034312
v -0.065265 0.001544 0.089829
v -0.000000 0.001544 0.111035
v 0.065265 0.001544 0.089829
v 0.105601 0.001544 0.034312
v 0.105601 0.001544 -0.034312
v 0.065265 0.001544 -0.089830
v -0.000000 -0.155890 -0.234463
v -0.137814 -0.155890 -0.189684
v -0.222987 -0.155890 -0.072453
v -0.222987 -0.155890 0.072453
v -0.137814 -0.155890 0.189684
v -0.000000 -0.155890 0.234463
v 0.137814 -0.155890 0.189684
v 0.222987 -0.155890 0.072453
v 0.222987 -0.155890 -0.072453
v 0.137814 -0.155890 -0.189685
v -0.221998 -0.350553 -0.072132
vn -0.2749 -0.4566 0.8461
vn -0.7197 -0.4569 -0.5227
vn 0.7197 -0.4566 -0.5229
vn 0.2749 -0.4566 0.8461
vn -0.8895 -0.4569 -0.0002
vn 0.2749 -0.4566 -0.8461
vn 0.7197 -0.4566 0.5229
vn -0.7197 -0.4566 0.5229
vn -0.2749 -0.4566 -0.8461
vn 0.8897 -0.4566 0.0000
vn -0.3090 0.0000 0.9511
vn -0.8090 0.0000 -0.5878
vn 0.8090 0.0000 -0.5878
vn 0.3090 0.0000 0.9511
vn -1.0000 0.0000 0.0000
vn 0.3090 0.0000 -0.9511
vn 0.8090 0.0000 0.5878
vn -0.8090 0.0000 0.5878
vn -0.3090 0.0000 -0.9511
vn 1.0000 0.0000 0.0000
vn -0.7274 0.4378 -0.5285
vn 0.7274 0.4378 -0.5285
vn 0.2778 0.4378 0.8551
vn -0.8991 0.4378 0.0000
vn 0.2778 0.4378 -0.8551
vn 0.7274 0.4378 0.5285
vn -0.7274 0.4378 0.5285
vn -0.2778 0.4378 -0.8551
vn 0.8991 0.4378 0.0000
vn -0.2778 0.4378 0.8551
vn 0.1738 0.8269 0.5348
vn -0.5623 0.8269 0.0000
vn 0.1738 0.8269 -0.5348
vn 0.4549 0.8269 0.3305
vn -0.4549 0.8269 0.3305
vn -0.1738 0.8269 -0.5348
vn 0.5623 0.8269 0.0000
vn -0.1738 0.8269 0.5348
vn -0.4549 0.8269 -0.3305
vn 0.4549 0.8269 -0.3305
vn -0.8017 -0.5978 0.0000
vn 0.2477 -0.5978 -0.7624
vn 0.6486 -0.5978 0.4712
vn -0.6486 -0.5978 0.4712
vn -0.2477 -0.5978 -0.7624
vn 0.8017 -0.5978 0.0000
vn -0.2477 -0.5978 0.7624
vn -0.6486 -0.5978 -0.4712
vn 0.6486 -0.5978 -0.4712
vn 0.2477 -0.5978 0.7624
vn 0.3090 0.0049 -0.9510
vn 0.8091 0.0050 0.5877
vn -0.8090 0.0049 0.5878
vn -0.3090 0.0049 -0.9510
vn 1.0000 0.0050 0.0001
vn -0.3090 0.0049 0.9510
vn -0.8090 0.0049 -0.5878
vn 0.8090 0.0049 -0.5878
vn 0.3090 0.0049 0.9510
vn -1.0000 0.0049 0.0000
usemtl Material
s off
f 5//1 15//1 14//1 4//1
f 60//2 12//2 11//2 2//2
f 9//3 19//3 18//3 8//3
f 6//4 16//4 15//4 5//4
f 3//5 13//5 12//5 60//5
f 1//6 10//6 19//6 9//6
f 7//7 17//7 16//7 6//7
f 4//8 14//8 13//8 3//8
f 2//9 11//9 10//9 1//9
f 8//10 18//10 17//10 7//10
f 15//11 25//11 24//11 14//11
f 12//12 22//12 21//12 11//12
f 19//13 29//13 28//13 18//13
f 16//14 26//14 25//14 15//14
f 13//15 23//15 22//15 12//15
f 10//16 20//16 29//16 19//16
f 17//17 27//17 26//17 16//17
f 14//18 24//18 23//18 13//18
f 11//19 21//19 20//19 10//19
f 18//20 28//20 27//20 17//20
f 22//21 32//21 31//21 21//21
f 29//22 39//22 38//22 28//22
f 26//23 36//23 35//23 25//23
f 23//24 33//24 32//24 22//24
f 20//25 30//25 39//25 29//25
f 27//26 37//26 36//26 26//26
f 24//27 34//27 33//27 23//27
f 21//28 31//28 30//28 20//28
f 28//29 38//29 37//29 27//29
f 25//30 35//30 34//30 24//30
f 36//31 46//31 45//31 35//31
f 33//32 43//32 42//32 32//32
f 30//33 40//33 49//33 39//33
f 37//34 47//34 46//34 36//34
f 34//35 44//35 43//35 33//35
f 31//36 41//36 40//36 30//36
f 38//37 48//37 47//37 37//37
f 35//38 45//38 44//38 34//38
f 32//39 42//39 41//39 31//39
f 39//40 49//40 48//40 38//40
f 48//41 58//41 57//41 47//41
f 45//42 55//42 54//42 44//42
f 42//43 52//43 51//43 41//43
f 49//44 59//44 58//44 48//44
f 46//45 56//45 55//45 45//45
f 43//46 53//46 52//46 42//46
f 40//47 50//47 59//47 49//47
f 47//48 57//48 56//48 46//48
f 44//49 54//49 53//49 43//49
f 41//50 51//50 50//50 40//50
f 55//51 5//51 4//51 54//51
f 52//52 60//52 2//52 51//52
f 59//53 9//53 8//53 58//53
f 56//54 6//54 5//54 55//54
f 53//55 3//55 60//55 52//55
f 50//56 1//56 9//56 59//56
f 57//57 7//57 6//57 56//57
f 54//58 4//58 3//58 53//58
f 51//59 2//59 1//59 50//59
f 58//60 8//60 7//60 57//60
