# Blender v2.79 (sub 0) OBJ File: 'pillow01.blend'
# www.blender.org
mtllib pillow01.mtl
o Cube_Cube.001
v -0.157483 -0.047245 0.157483
v -0.157483 0.047245 0.157483
v -0.157483 -0.047245 -0.157483
v -0.157483 0.047245 -0.157483
v 0.157483 -0.047245 0.157483
v 0.157483 0.047245 0.157483
v 0.157483 -0.047245 -0.157483
v 0.157483 0.047245 -0.157483
v -0.192877 -0.028931 0.192877
v -0.200000 0.000000 0.200000
v -0.187449 0.028915 0.187449
v -0.187449 0.028915 -0.187449
v -0.200000 0.000000 -0.200000
v -0.192877 -0.028931 -0.192877
v 0.187449 0.028915 -0.187449
v 0.200000 0.000000 -0.200000
v 0.192877 -0.028931 -0.192877
v 0.187449 0.028915 0.187449
v 0.200000 0.000000 0.200000
v 0.192877 -0.028931 0.192877
v -0.152571 -0.045771 -0.050857
v -0.152571 -0.045771 0.050857
v -0.152571 0.045771 0.050857
v -0.152571 0.045771 -0.050857
v 0.152571 -0.045771 0.050857
v 0.152571 -0.045771 -0.050857
v 0.152571 0.045771 -0.050857
v 0.152571 0.045771 0.050857
v 0.186861 -0.028029 -0.062287
v 0.186861 -0.028029 0.062287
v 0.193763 0.000000 -0.064588
v 0.193763 0.000000 0.064588
v 0.181603 0.028038 -0.060534
v 0.181603 0.028038 0.060534
v -0.186861 -0.028029 0.062287
v -0.186861 -0.028029 -0.062287
v -0.193763 0.000000 0.064588
v -0.193763 0.000000 -0.064588
v -0.181603 0.028038 0.060534
v -0.181603 0.028038 -0.060534
v 0.050857 -0.045771 -0.152571
v -0.050857 -0.045771 -0.152571
v -0.050857 0.045771 -0.152571
v 0.050857 0.045771 -0.152571
v -0.050857 -0.045771 0.152571
v 0.050857 -0.045771 0.152571
v 0.050857 0.045771 0.152571
v -0.050857 0.045771 0.152571
v 0.062287 -0.028029 0.186861
v -0.062287 -0.028029 0.186861
v 0.064588 0.000000 0.193763
v -0.064588 0.000000 0.193763
v 0.060534 0.028038 0.181603
v -0.060534 0.028038 0.181603
v -0.062287 -0.028029 -0.186861
v 0.062287 -0.028029 -0.186861
v -0.064588 0.000000 -0.193763
v 0.064588 0.000000 -0.193763
v -0.060534 0.028038 -0.181603
v 0.060534 0.028038 -0.181603
v -0.050857 0.056619 -0.050857
v 0.050857 0.056619 -0.050857
v -0.050857 0.056619 0.050857
v 0.050857 0.056619 0.050857
v 0.050857 -0.047105 -0.050857
v -0.050857 -0.047105 -0.050857
v 0.050857 -0.047105 0.050857
v -0.050857 -0.047105 0.050857
vn -0.5374 0.8427 0.0332
vn -0.0332 0.8427 -0.5374
vn 0.5374 0.8427 -0.0332
vn 0.0332 0.8427 0.5374
vn -0.0007 -1.0000 -0.0007
vn -0.0439 0.9981 0.0439
vn 0.0307 -0.8792 0.4755
vn 0.0455 -0.2317 0.9717
vn 0.0437 0.3869 0.9211
vn 0.4755 -0.8792 -0.0307
vn 0.9717 -0.2317 -0.0455
vn 0.9211 0.3869 -0.0437
vn -0.0307 -0.8792 -0.4755
vn -0.0455 -0.2317 -0.9717
vn -0.0437 0.3869 -0.9211
vn -0.4755 -0.8792 0.0307
vn -0.9717 -0.2317 0.0455
vn -0.9211 0.3869 0.0437
vn -0.9211 0.3869 -0.0437
vn -0.9174 0.3979 0.0000
vn -0.9717 -0.2317 -0.0455
vn -0.9710 -0.2391 0.0000
vn -0.4755 -0.8792 -0.0307
vn -0.4595 -0.8882 0.0000
vn 0.9211 0.3869 0.0437
vn 0.9174 0.3979 0.0000
vn 0.9717 -0.2317 0.0455
vn 0.9710 -0.2391 0.0000
vn 0.4755 -0.8792 0.0307
vn 0.4595 -0.8882 0.0000
vn -0.0439 0.9981 -0.0439
vn -0.1061 0.9944 0.0000
vn -0.0007 -1.0000 0.0007
vn 0.0131 -0.9999 0.0000
vn 0.5374 0.8427 0.0332
vn 0.5213 0.8534 0.0000
vn -0.5374 0.8427 -0.0332
vn -0.5213 0.8534 0.0000
vn -0.0131 -0.9999 0.0000
vn 0.0000 -1.0000 0.0000
vn 0.0007 -1.0000 0.0007
vn 0.0000 -0.9999 -0.0131
vn 0.1061 0.9944 0.0000
vn 0.0000 1.0000 0.0000
vn 0.0439 0.9981 -0.0439
vn 0.0000 0.9944 -0.1061
vn 0.0437 0.3869 -0.9211
vn 0.0000 0.3979 -0.9174
vn 0.0455 -0.2317 -0.9717
vn 0.0000 -0.2391 -0.9710
vn 0.0307 -0.8792 -0.4755
vn 0.0000 -0.8882 -0.4595
vn -0.0437 0.3869 0.9211
vn 0.0000 0.3979 0.9174
vn -0.0455 -0.2317 0.9717
vn 0.0000 -0.2391 0.9710
vn -0.0307 -0.8792 0.4755
vn 0.0000 -0.8882 0.4595
vn 0.0439 0.9981 0.0439
vn 0.0000 0.9944 0.1061
vn 0.0007 -1.0000 -0.0007
vn 0.0000 -0.9999 0.0131
vn -0.0332 0.8427 0.5374
vn 0.0000 0.8534 0.5213
vn 0.0332 0.8427 -0.5374
vn 0.0000 0.8534 -0.5213
usemtl None
s off
f 40//1 24//1 4//1 12//1
f 60//2 44//2 8//2 15//2
f 34//3 28//3 6//3 18//3
f 54//4 48//4 2//4 11//4
f 67//5 25//5 5//5 46//5
f 63//6 23//6 2//6 48//6
f 45//7 50//7 9//7 1//7
f 50//8 52//8 10//8 9//8
f 52//9 54//9 11//9 10//9
f 25//10 30//10 20//10 5//10
f 30//11 32//11 19//11 20//11
f 32//12 34//12 18//12 19//12
f 41//13 56//13 17//13 7//13
f 56//14 58//14 16//14 17//14
f 58//15 60//15 15//15 16//15
f 21//16 36//16 14//16 3//16
f 36//17 38//17 13//17 14//17
f 38//18 40//18 12//18 13//18
f 10//19 11//19 39//19 37//19
f 37//20 39//20 40//20 38//20
f 9//21 10//21 37//21 35//21
f 35//22 37//22 38//22 36//22
f 1//23 9//23 35//23 22//23
f 22//24 35//24 36//24 21//24
f 16//25 15//25 33//25 31//25
f 31//26 33//26 34//26 32//26
f 17//27 16//27 31//27 29//27
f 29//28 31//28 32//28 30//28
f 7//29 17//29 29//29 26//29
f 26//30 29//30 30//30 25//30
f 43//31 4//31 24//31 61//31
f 61//32 24//32 23//32 63//32
f 41//33 7//33 26//33 65//33
f 65//34 26//34 25//34 67//34
f 15//35 8//35 27//35 33//35
f 33//36 27//36 28//36 34//36
f 11//37 2//37 23//37 39//37
f 39//38 23//38 24//38 40//38
f 21//39 66//39 68//39 22//39
f 66//40 65//40 67//40 68//40
f 3//41 42//41 66//41 21//41
f 42//42 41//42 65//42 66//42
f 27//43 62//43 64//43 28//43
f 62//44 61//44 63//44 64//44
f 8//45 44//45 62//45 27//45
f 44//46 43//46 61//46 62//46
f 13//47 12//47 59//47 57//47
f 57//48 59//48 60//48 58//48
f 14//49 13//49 57//49 55//49
f 55//50 57//50 58//50 56//50
f 3//51 14//51 55//51 42//51
f 42//52 55//52 56//52 41//52
f 19//53 18//53 53//53 51//53
f 51//54 53//54 54//54 52//54
f 20//55 19//55 51//55 49//55
f 49//56 51//56 52//56 50//56
f 5//57 20//57 49//57 46//57
f 46//58 49//58 50//58 45//58
f 28//59 64//59 47//59 6//59
f 64//60 63//60 48//60 47//60
f 22//61 68//61 45//61 1//61
f 68//62 67//62 46//62 45//62
f 18//63 6//63 47//63 53//63
f 53//64 47//64 48//64 54//64
f 12//65 4//65 43//65 59//65
f 59//66 43//66 44//66 60//66
