# Blender v2.79 (sub 0) OBJ File: 'pillow03.blend'
# www.blender.org
mtllib pillow03.mtl
o Cube_Cube.001
v -0.150010 -0.046888 0.148808
v -0.141139 0.041944 0.141774
v -0.150688 0.012601 -0.150873
v -0.129199 0.091976 -0.099645
v 0.150322 -0.046917 0.149279
v 0.141025 0.041911 0.141940
v 0.150757 0.012557 -0.150807
v 0.129378 0.091935 -0.099228
v -0.178514 -0.029843 0.180658
v -0.180891 -0.003507 0.184996
v -0.166528 0.023317 0.171030
v -0.165907 0.084649 -0.145041
v -0.187457 0.065602 -0.177697
v -0.180535 0.037905 -0.179002
v 0.165936 0.084633 -0.144940
v 0.187484 0.065599 -0.177670
v 0.180557 0.037906 -0.178986
v 0.166542 0.023293 0.171055
v 0.180883 -0.003516 0.185010
v 0.178289 -0.029811 0.180500
v -0.160906 -0.036351 -0.057005
v -0.158954 -0.053023 0.046247
v -0.157071 0.045124 0.046890
v -0.159093 0.072253 -0.037711
v 0.159030 -0.053046 0.046338
v 0.160864 -0.036354 -0.056956
v 0.158928 0.072101 -0.037614
v 0.157248 0.045130 0.047117
v 0.188257 -0.016093 -0.061610
v 0.183956 -0.034635 0.061439
v 0.189799 0.014346 -0.054431
v 0.183867 -0.004772 0.067879
v 0.183083 0.045726 -0.044320
v 0.175431 0.024694 0.064720
v -0.183752 -0.034631 0.061259
v -0.188317 -0.016059 -0.061705
v -0.183466 -0.004754 0.067653
v -0.189899 0.014392 -0.054552
v -0.175008 0.024681 0.064459
v -0.183218 0.045788 -0.044452
v 0.057868 0.028584 -0.119172
v -0.057779 0.028598 -0.119001
v -0.055272 0.100997 -0.090643
v 0.055508 0.101033 -0.090959
v -0.053335 -0.041537 0.138398
v 0.053263 -0.041524 0.138364
v 0.062619 0.052189 0.113694
v -0.062854 0.052196 0.113807
v 0.067247 -0.022408 0.166930
v -0.067410 -0.022433 0.167153
v 0.077043 0.005143 0.167006
v -0.077212 0.005123 0.167324
v 0.075172 0.031443 0.153468
v -0.075418 0.031430 0.153834
v -0.064660 0.051725 -0.152227
v 0.064760 0.051696 -0.152547
v -0.064764 0.079399 -0.152346
v 0.064889 0.079461 -0.152779
v -0.060542 0.099398 -0.129683
v 0.060717 0.099745 -0.130575
v -0.062249 0.092758 -0.045971
v 0.062246 0.092704 -0.045950
v -0.053603 0.062356 0.005873
v 0.053567 0.062306 0.005942
v 0.062618 -0.013615 -0.062532
v -0.062602 -0.013600 -0.062561
v 0.055122 -0.042959 0.029473
v -0.055117 -0.042955 0.029467
vn -0.5643 0.8153 0.1300
vn 0.1294 0.9909 -0.0364
vn 0.6058 0.7901 0.0938
vn 0.0434 0.8581 0.5117
vn -0.0811 -0.9962 0.0315
vn -0.1234 0.9899 0.0692
vn 0.1154 -0.8153 0.5674
vn 0.1471 -0.0494 0.9879
vn 0.1239 0.4256 0.8964
vn 0.5096 -0.8571 0.0753
vn 0.9979 -0.0519 0.0379
vn 0.9205 0.3875 0.0492
vn -0.2872 -0.6619 -0.6924
vn -0.2053 0.0452 -0.9777
vn 0.0034 0.8139 -0.5809
vn -0.3993 -0.8103 -0.4290
vn -0.9866 -0.1299 -0.0988
vn -0.9001 0.4258 0.0920
vn -0.9208 0.3874 0.0457
vn -0.9680 0.2294 0.1013
vn -0.9985 -0.0436 0.0341
vn -0.9987 -0.0305 0.0401
vn -0.5058 -0.8594 0.0746
vn -0.6054 -0.7889 -0.1055
vn 0.9001 0.4255 0.0931
vn 0.9683 0.2301 0.0968
vn 0.9868 -0.1295 -0.0977
vn 0.9988 -0.0323 0.0367
vn 0.4001 -0.8101 -0.4284
vn 0.6047 -0.7893 -0.1065
vn -0.1679 0.9662 0.1954
vn -0.0761 0.9166 0.3924
vn -0.2369 -0.8413 -0.4859
vn -0.1306 -0.9636 -0.2334
vn 0.5655 0.8141 0.1320
vn 0.7023 0.6824 0.2029
vn -0.6104 0.7868 0.0917
vn -0.7043 0.6792 0.2065
vn 0.1307 -0.9636 -0.2334
vn -0.0000 -0.9527 -0.3039
vn 0.2373 -0.8410 -0.4862
vn -0.0005 -0.8014 -0.5981
vn 0.0763 0.9172 0.3909
vn 0.0002 0.8627 0.5056
vn 0.1681 0.9657 0.1979
vn 0.0003 0.9834 0.1817
vn 0.0007 0.8168 -0.5769
vn -0.0047 0.7441 -0.6681
vn 0.2080 0.0473 -0.9770
vn -0.0029 -0.0063 -1.0000
vn 0.2891 -0.6597 -0.6937
vn -0.0013 -0.8214 -0.5703
vn -0.1268 0.4252 0.8962
vn 0.0019 0.4570 0.8895
vn -0.1488 -0.0499 0.9876
vn 0.0019 -0.0045 1.0000
vn -0.1173 -0.8108 0.5735
vn 0.0007 -0.8320 0.5548
vn 0.1228 0.9900 0.0695
vn 0.0003 0.9956 0.0936
vn 0.0809 -0.9962 0.0315
vn 0.0000 -0.9999 0.0131
vn -0.0460 0.8562 0.5146
vn 0.0008 0.8871 0.4615
vn -0.1257 0.9912 -0.0423
vn -0.0018 0.9993 -0.0367
usemtl None
s off
f 40//1 24//1 4//1 12//1
f 60//2 44//2 8//2 15//2
f 34//3 28//3 6//3 18//3
f 54//4 48//4 2//4 11//4
f 67//5 25//5 5//5 46//5
f 63//6 23//6 2//6 48//6
f 45//7 50//7 9//7 1//7
f 50//8 52//8 10//8 9//8
f 52//9 54//9 11//9 10//9
f 25//10 30//10 20//10 5//10
f 30//11 32//11 19//11 20//11
f 32//12 34//12 18//12 19//12
f 41//13 56//13 17//13 7//13
f 56//14 58//14 16//14 17//14
f 58//15 60//15 15//15 16//15
f 21//16 36//16 14//16 3//16
f 36//17 38//17 13//17 14//17
f 38//18 40//18 12//18 13//18
f 10//19 11//19 39//19 37//19
f 37//20 39//20 40//20 38//20
f 9//21 10//21 37//21 35//21
f 35//22 37//22 38//22 36//22
f 1//23 9//23 35//23 22//23
f 22//24 35//24 36//24 21//24
f 16//25 15//25 33//25 31//25
f 31//26 33//26 34//26 32//26
f 17//27 16//27 31//27 29//27
f 29//28 31//28 32//28 30//28
f 7//29 17//29 29//29 26//29
f 26//30 29//30 30//30 25//30
f 43//31 4//31 24//31 61//31
f 61//32 24//32 23//32 63//32
f 41//33 7//33 26//33 65//33
f 65//34 26//34 25//34 67//34
f 15//35 8//35 27//35 33//35
f 33//36 27//36 28//36 34//36
f 11//37 2//37 23//37 39//37
f 39//38 23//38 24//38 40//38
f 21//39 66//39 68//39 22//39
f 66//40 65//40 67//40 68//40
f 3//41 42//41 66//41 21//41
f 42//42 41//42 65//42 66//42
f 27//43 62//43 64//43 28//43
f 62//44 61//44 63//44 64//44
f 8//45 44//45 62//45 27//45
f 44//46 43//46 61//46 62//46
f 13//47 12//47 59//47 57//47
f 57//48 59//48 60//48 58//48
f 14//49 13//49 57//49 55//49
f 55//50 57//50 58//50 56//50
f 3//51 14//51 55//51 42//51
f 42//52 55//52 56//52 41//52
f 19//53 18//53 53//53 51//53
f 51//54 53//54 54//54 52//54
f 20//55 19//55 51//55 49//55
f 49//56 51//56 52//56 50//56
f 5//57 20//57 49//57 46//57
f 46//58 49//58 50//58 45//58
f 28//59 64//59 47//59 6//59
f 64//60 63//60 48//60 47//60
f 22//61 68//61 45//61 1//61
f 68//62 67//62 46//62 45//62
f 18//63 6//63 47//63 53//63
f 53//64 47//64 48//64 54//64
f 12//65 4//65 43//65 59//65
f 59//66 43//66 44//66 60//66
