# Blender v2.78 (sub 0) OBJ File: 'vampirebat-cutup.blend'
# www.blender.org
mtllib vampirebat-wing.mtl
o Sphere.001
v 0.652589 -1.040414 -0.129285
v 0.652589 0.132737 -0.129285
v 0.652589 -1.040414 -0.323695
v 0.652589 0.132737 -0.323695
v 1.146838 0.246540 -0.129285
v 1.146838 0.246540 -0.323695
v 1.523130 0.324579 -0.129285
v 1.523130 0.324579 -0.323695
v 2.029844 0.433670 -0.129285
v 2.029844 0.433670 -0.323695
v 2.736471 0.713918 -0.129284
v 2.736471 0.713918 -0.323695
v 3.080777 0.963180 -0.108570
v 3.080777 0.963180 -0.344409
v 3.480139 1.292183 -0.108570
v 3.480139 1.292183 -0.344408
v 3.812472 1.578316 -0.108570
v 3.812472 1.578316 -0.344408
v 2.401420 -1.301607 -0.323695
v 2.401420 -1.301607 -0.129285
v 2.063640 -1.612147 -0.129285
v 2.063640 -1.612147 -0.323695
v 1.257325 -1.268918 -0.323695
v 1.257325 -1.268918 -0.129285
v 2.908091 -1.100028 -0.323695
v 2.908091 -1.100028 -0.129285
v 3.480139 -1.089132 -0.323695
v 3.480139 -1.089132 -0.129285
v 3.501931 -0.735007 -0.323695
v 3.501931 -0.735007 -0.129284
v 3.861504 -0.375434 -0.323694
v 3.861504 -0.375434 -0.129284
v 4.297350 -0.211992 -0.323694
v 4.297350 -0.211992 -0.129284
v 4.079427 0.076756 -0.323694
v 4.079427 0.076756 -0.129284
v 4.008602 0.436329 -0.323694
v 4.008602 0.436329 -0.129284
v 4.155700 0.730524 -0.323694
v 4.155700 0.730524 -0.129284
v 4.575202 0.893967 -0.323694
v 4.575202 0.893967 -0.129284
v 4.313694 1.209955 -0.323694
v 4.313694 1.209955 -0.129284
v 4.199285 1.634905 -0.323694
v 4.199285 1.634905 -0.129284
v 4.275558 2.234192 -0.323694
v 4.275558 2.234192 -0.129284
v 3.193804 0.778085 -0.114309
v 3.771590 1.291928 -0.114309
v 3.886217 0.624497 -0.126415
v 4.042239 1.675253 -0.126415
v 1.073926 -0.974284 -0.129285
v 1.451766 0.080121 -0.129285
v 1.733647 0.128210 -0.129285
v 2.135478 0.214500 -0.129285
v 2.152637 -1.340796 -0.129285
v 1.536231 -1.078407 -0.129285
v 3.235512 -0.940965 -0.129285
v 3.252172 -0.670246 -0.129284
v 3.682430 -0.175831 -0.129284
v 3.997661 1.325001 -0.126415
v 1.073926 0.023489 -0.129285
v 2.687244 0.425849 -0.129284
v 2.410861 -1.103396 -0.129285
v 2.798197 -0.949295 -0.129285
v 3.527056 -0.395362 -0.129284
v 3.693652 -0.049675 -0.129284
v 3.577359 1.124698 -0.114309
v 3.972188 0.796439 -0.126415
v 4.217364 0.891962 -0.126415
v 4.064527 1.076640 -0.126415
v 0.636795 -0.906348 -0.129285
v 0.636795 -0.001328 -0.129285
v 0.000000 -0.931876 -0.323695
v 0.000000 -0.035745 -0.323695
v 0.000000 -0.931876 -0.129285
v 0.000000 -0.035745 -0.129285
v 0.000000 -0.832533 -0.129285
v 0.000000 -0.135088 -0.129285
vn -0.1641 -0.9864 0.0000
vn -0.2031 0.9792 0.0000
vn -0.2244 0.9745 0.0000
vn -0.2105 0.9776 0.0000
vn -0.5864 0.8100 0.0000
vn -0.3687 0.9296 0.0000
vn -0.6358 0.7718 0.0000
vn -0.6525 0.7578 0.0000
vn -0.3917 -0.9201 0.0000
vn 0.6768 -0.7362 0.0000
vn -0.3535 -0.9354 0.0000
vn 0.3697 -0.9292 0.0000
vn 0.0190 -0.9998 0.0000
vn 0.9981 -0.0614 0.0000
vn 0.7071 -0.7071 0.0000
vn 0.3511 -0.9363 0.0000
vn 0.7982 0.6024 0.0000
vn 0.9811 0.1933 0.0000
vn 0.8944 -0.4472 0.0000
vn 0.3630 -0.9318 0.0000
vn 0.7704 0.6376 0.0000
vn 0.9656 0.2600 0.0000
vn 0.9920 -0.1263 0.0000
vn -0.8169 0.5768 0.0000
vn 0.0133 -0.0066 0.9999
vn 0.0101 0.0027 0.9999
vn 0.0185 -0.0215 0.9996
vn 0.0912 -0.0330 0.9953
vn 0.0081 -0.0209 0.9997
vn 0.0177 -0.0023 0.9998
vn 0.0197 -0.0228 0.9995
vn 0.0080 0.0066 0.9999
vn 0.0000 -0.0000 1.0000
vn 0.0052 -0.0034 1.0000
vn -0.0304 -0.0162 0.9994
vn 0.0545 -0.0069 0.9985
vn 0.0399 -0.0019 0.9992
vn 0.0182 -0.0150 0.9997
vn 0.0150 -0.0113 0.9998
vn -0.0098 -0.0207 0.9997
vn -0.2500 0.9683 0.0000
usemtl Material
s off
f 75//1 3//1 1//1 77//1
f 6//2 5//2 7//2 8//2
f 4//3 2//3 5//3 6//3
f 8//4 7//4 9//4 10//4
f 12//5 11//5 13//5 14//5
f 10//6 9//6 11//6 12//6
f 14//7 13//7 15//7 16//7
f 16//8 15//8 17//8 18//8
f 24//9 23//9 22//9 21//9
f 21//10 22//10 19//10 20//10
f 1//11 3//11 23//11 24//11
f 20//12 19//12 25//12 26//12
f 26//13 25//13 27//13 28//13
f 28//14 27//14 29//14 30//14
f 30//15 29//15 31//15 32//15
f 32//16 31//16 33//16 34//16
f 34//17 33//17 35//17 36//17
f 36//18 35//18 37//18 38//18
f 38//19 37//19 39//19 40//19
f 40//20 39//20 41//20 42//20
f 42//21 41//21 43//21 44//21
f 44//22 43//22 45//22 46//22
f 46//23 45//23 47//23 48//23
f 18//24 17//24 48//24 47//24
f 38//25 40//25 70//25 51//25
f 44//26 46//26 62//26 72//26
f 15//27 13//27 49//27 69//27
f 48//28 17//28 50//28 52//28
f 40//29 42//29 71//29 70//29
f 46//30 48//30 52//30 62//30
f 17//31 15//31 69//31 50//31
f 42//32 44//32 72//32 71//32
f 1//33 24//33 58//33 53//33
f 26//33 28//33 59//33 66//33
f 21//33 20//33 65//33 57//33
f 32//33 34//33 61//33 67//33
f 9//33 7//33 55//33 56//33
f 24//33 21//33 57//33 58//33
f 5//33 2//33 63//33 54//33
f 28//33 30//33 60//33 59//33
f 20//33 26//33 66//33 65//33
f 11//33 9//33 56//33 64//33
f 34//33 36//33 68//33 61//33
f 7//33 5//33 54//33 55//33
f 30//33 32//33 67//33 60//33
f 36//34 38//34 51//34 68//34
f 11//35 64//35 49//35 13//35
f 62//36 52//36 50//36
f 72//33 70//33 71//33
f 50//37 70//37 72//37 62//37
f 51//38 70//38 50//38 69//38
f 49//39 68//39 51//39 69//39
f 61//40 68//40 49//40 64//40
f 67//33 61//33 64//33
f 60//33 67//33 64//33
f 59//33 60//33 66//33
f 56//33 66//33 60//33 64//33
f 55//33 65//33 66//33 56//33
f 54//33 57//33 65//33 55//33
f 57//33 54//33 58//33
f 53//33 58//33 54//33 63//33
f 77//33 1//33 73//33 79//33
f 2//33 74//33 63//33
f 1//33 53//33 73//33
f 53//33 63//33 74//33 73//33
f 79//33 73//33 74//33 80//33
f 2//33 78//33 80//33 74//33
f 4//41 76//41 78//41 2//41
