# Blender v2.78 (sub 0) OBJ File: 'vampirebat-cutup.blend'
# www.blender.org
mtllib vampirebat-body.mtl
o Sphere
v 0.280682 -0.235016 0.618798
v 0.518633 0.092495 0.473608
v 0.677626 0.311331 0.256315
v 0.733457 0.388176 -0.000000
v 0.677626 0.311331 -0.256315
v 0.518633 0.092495 -0.473608
v 0.280682 -0.235016 -0.618799
v 0.454153 -0.473779 0.618798
v 0.839165 -0.348680 0.473608
v 1.096422 -0.265093 0.256315
v 1.186759 -0.235740 -0.000000
v 1.096422 -0.265093 -0.256315
v 0.839165 -0.348680 -0.473608
v 0.454153 -0.473778 -0.618799
v 0.454153 -0.768905 0.618798
v 0.839165 -0.894003 0.473608
v 1.096422 -0.977591 0.256315
v 1.186759 -1.006943 -0.000000
v 1.096422 -0.977591 -0.256315
v 0.839165 -0.894003 -0.473608
v 0.454153 -0.768905 -0.618799
v 0.280682 -1.007668 0.618798
v 0.518633 -1.335179 0.473608
v 0.677626 -1.554015 0.256315
v 0.733457 -1.630859 -0.000000
v 0.677626 -1.554014 -0.256315
v 0.518633 -1.335178 -0.473608
v 0.280682 -1.007667 -0.618799
v 0.982666 0.890711 -0.000000
v 0.971719 1.109657 -0.000000
v 0.834878 0.856045 -0.000000
v 0.639651 0.666292 -0.000000
v 0.477266 0.454644 -0.000000
v 0.409758 0.472890 -0.133871
v 0.459021 0.606082 -0.133871
v 0.544775 0.708256 -0.133871
v 0.701686 0.837799 -0.070263
v 0.844001 0.950921 -0.057866
v 0.663370 0.348820 -0.000000
v 0.789264 0.447346 -0.000000
v 0.931579 0.653520 -0.000000
v 0.822435 0.680302 -0.017409
v 0.828692 0.749470 -0.016432
v 0.774541 0.675978 -0.018220
v 0.704902 0.625107 -0.019964
v 0.558850 0.426303 -0.021668
v 0.612546 0.384857 -0.021348
v 0.742143 0.549793 -0.020334
v 0.795911 0.608161 -0.018744
v 0.751439 0.622399 -0.019265
v 0.438242 -0.029263 0.621494
v 0.201877 -0.106769 0.653624
v 0.055795 -0.309682 0.673482
v 0.055795 -0.560497 0.673482
v 0.201877 -0.763410 0.653624
v 0.438242 -0.840916 0.621494
v 0.674607 -0.763410 0.589364
v 0.820689 -0.560497 0.569507
v 0.820689 -0.309682 0.569507
v 0.674607 -0.106769 0.589364
v 0.438242 -0.435089 0.621494
v 0.467131 -0.305375 0.629097
v 0.337563 -0.347862 0.646709
v 0.257485 -0.459093 0.657595
v 0.257485 -0.596582 0.657595
v 0.337563 -0.707813 0.646709
v 0.467131 -0.750299 0.629097
v 0.596699 -0.707813 0.611484
v 0.676777 -0.596582 0.600599
v 0.676777 -0.459093 0.600599
v 0.596699 -0.347862 0.611484
v 0.467131 -0.527837 0.629097
v 0.430368 -1.252802 0.623935
v 0.240277 -1.280185 0.648742
v 0.376188 -1.561412 0.623935
v 0.670577 -1.222503 0.577203
v 0.280682 -1.266253 0.642761
v 0.382886 -1.324849 0.577203
v 0.000000 -0.143817 0.618798
v 0.000000 0.531505 -0.256315
v 0.000000 0.261009 -0.473608
v 0.000000 -0.143817 -0.618799
v 0.000000 -0.621342 -0.669783
v 0.000000 -0.621342 0.669782
v -0.280682 -0.235016 0.618798
v -0.518633 0.092495 0.473608
v -0.677626 0.311331 0.256315
v -0.733457 0.388176 -0.000000
v -0.677626 0.311331 -0.256315
v -0.518633 0.092495 -0.473608
v -0.280682 -0.235016 -0.618799
v -0.454153 -0.473779 0.618798
v -0.839165 -0.348680 0.473608
v -1.096422 -0.265093 0.256315
v -1.186759 -0.235740 -0.000000
v -1.096422 -0.265093 -0.256315
v -0.839165 -0.348680 -0.473608
v -0.454153 -0.473778 -0.618799
v -0.454153 -0.768905 0.618798
v -0.839165 -0.894003 0.473608
v -1.096422 -0.977591 0.256315
v -1.186759 -1.006943 -0.000000
v -1.096422 -0.977591 -0.256315
v -0.839165 -0.894003 -0.473608
v -0.454153 -0.768905 -0.618799
v -0.280682 -1.007668 0.618798
v -0.518633 -1.335179 0.473608
v -0.677626 -1.554015 0.256315
v -0.733457 -1.630859 -0.000000
v -0.677626 -1.554014 -0.256315
v -0.518633 -1.335178 -0.473608
v -0.280682 -1.007667 -0.618799
v 0.000000 -1.098867 0.618798
v 0.000000 -1.503693 0.473608
v 0.000000 -1.774189 0.256315
v 0.000000 -1.869174 -0.000000
v 0.000000 -1.774189 -0.256315
v 0.000000 -1.503693 -0.473608
v 0.000000 -1.098866 -0.618799
v 0.000000 0.261009 0.473608
v 0.000000 0.531505 0.256315
v 0.000000 0.626491 -0.000000
v -0.982666 0.890711 -0.000000
v -0.971719 1.109657 -0.000000
v -0.834878 0.856045 -0.000000
v -0.639651 0.666292 -0.000000
v -0.477266 0.454644 -0.000000
v -0.409758 0.472890 -0.133871
v -0.459021 0.606082 -0.133871
v -0.544775 0.708256 -0.133871
v -0.701686 0.837799 -0.070263
v -0.844001 0.950921 -0.057866
v -0.663370 0.348820 -0.000000
v -0.789264 0.447346 -0.000000
v -0.931579 0.653520 -0.000000
v -0.822435 0.680302 -0.017409
v -0.828692 0.749470 -0.016432
v -0.774541 0.675978 -0.018220
v -0.704902 0.625107 -0.019964
v -0.558850 0.426303 -0.021668
v -0.612546 0.384857 -0.021348
v -0.742143 0.549793 -0.020334
v -0.795911 0.608161 -0.018744
v -0.751439 0.622399 -0.019265
v -0.438242 -0.029263 0.621494
v -0.201877 -0.106769 0.653624
v -0.055795 -0.309682 0.673482
v -0.055795 -0.560497 0.673482
v -0.201877 -0.763410 0.653624
v -0.438242 -0.840916 0.621494
v -0.674607 -0.763410 0.589364
v -0.820689 -0.560497 0.569507
v -0.820689 -0.309682 0.569507
v -0.674607 -0.106769 0.589364
v -0.438242 -0.435089 0.621494
v -0.467131 -0.305375 0.629097
v -0.337563 -0.347862 0.646709
v -0.257485 -0.459093 0.657595
v -0.257485 -0.596582 0.657595
v -0.337563 -0.707813 0.646709
v -0.467131 -0.750299 0.629097
v -0.596699 -0.707813 0.611484
v -0.676777 -0.596582 0.600599
v -0.676777 -0.459093 0.600599
v -0.596699 -0.347862 0.611484
v -0.467131 -0.527837 0.629097
v -0.430368 -1.252802 0.623935
v -0.240277 -1.280185 0.648742
v -0.376188 -1.561412 0.623935
v -0.670577 -1.222503 0.577203
v -0.280682 -1.266253 0.642761
v -0.382886 -1.324849 0.577203
v 0.000000 -1.261895 0.642761
v 0.000000 -1.352873 0.577203
vn 0.1090 0.3356 -0.9357
vn 0.2914 0.8970 -0.3324
vn 0.1994 0.6137 0.7640
vn 0.0345 0.1061 0.9938
vn 0.0345 0.1061 -0.9938
vn 0.1994 0.6137 -0.7640
vn 0.2914 0.8970 0.3324
vn 0.1090 0.3356 0.9357
vn 0.0903 0.0656 -0.9938
vn 0.5220 0.3793 -0.7640
vn 0.7630 0.5544 0.3324
vn 0.2855 0.2074 0.9357
vn 0.2855 0.2074 -0.9357
vn 0.7630 0.5544 -0.3324
vn 0.5220 0.3793 0.7640
vn 0.0903 0.0656 0.9938
vn 0.9431 0.0000 0.3324
vn 0.3529 0.0000 0.9357
vn 0.3529 0.0000 -0.9357
vn 0.9431 0.0000 -0.3324
vn 0.6453 0.0000 0.7640
vn 0.1116 0.0000 0.9938
vn 0.1116 0.0000 -0.9938
vn 0.6453 0.0000 -0.7640
vn 0.2855 -0.2074 -0.9357
vn 0.7630 -0.5544 -0.3324
vn 0.5220 -0.3793 0.7640
vn 0.0903 -0.0656 0.9938
vn 0.0903 -0.0656 -0.9938
vn 0.5220 -0.3793 -0.7640
vn 0.7630 -0.5544 0.3324
vn 0.2855 -0.2074 0.9357
vn 0.1994 -0.6137 0.7640
vn 0.0345 -0.1061 0.9938
vn 0.0345 -0.1061 -0.9938
vn 0.1994 -0.6137 -0.7640
vn 0.2914 -0.8970 0.3324
vn 0.1090 -0.3356 0.9357
vn 0.1090 -0.3356 -0.9357
vn 0.2914 -0.8970 -0.3324
vn -0.3094 0.2339 0.9217
vn -0.2860 0.2115 0.9346
vn -0.2923 -0.0001 0.9563
vn -0.2788 0.2492 0.9275
vn -0.3923 -0.0196 0.9196
vn 0.6208 -0.4509 -0.6414
vn 0.5571 -0.4793 -0.6781
vn 0.6187 -0.4892 -0.6148
vn 0.8320 -0.3077 -0.4615
vn 0.1763 -0.1673 -0.9700
vn -0.2009 0.1550 -0.9673
vn -0.2685 0.1620 -0.9496
vn 0.1712 -0.1210 -0.9778
vn -0.1437 0.1652 -0.9757
vn 0.1016 0.0050 -0.9948
vn 0.1495 -0.0332 -0.9882
vn -0.0130 0.0164 -0.9998
vn 0.0158 0.0127 -0.9998
vn 0.0149 -0.0024 -0.9999
vn 0.0088 0.0036 -1.0000
vn 0.1347 -0.0000 0.9909
vn -0.1090 0.3356 -0.9357
vn -0.2914 0.8970 -0.3324
vn -0.1994 0.6137 0.7640
vn -0.0345 0.1061 0.9938
vn -0.0345 0.1061 -0.9938
vn -0.1994 0.6137 -0.7640
vn -0.2914 0.8970 0.3324
vn -0.1090 0.3356 0.9357
vn -0.0903 0.0656 -0.9938
vn -0.5220 0.3793 -0.7640
vn -0.7630 0.5544 0.3324
vn -0.2855 0.2074 0.9357
vn -0.2855 0.2074 -0.9357
vn -0.7630 0.5544 -0.3324
vn -0.5220 0.3793 0.7640
vn -0.0903 0.0656 0.9938
vn -0.9431 -0.0000 0.3324
vn -0.3529 0.0000 0.9357
vn -0.3529 0.0000 -0.9357
vn -0.9431 -0.0000 -0.3324
vn -0.6453 0.0000 0.7640
vn -0.1116 0.0000 0.9938
vn -0.1116 0.0000 -0.9938
vn -0.6453 -0.0000 -0.7640
vn -0.2855 -0.2074 -0.9357
vn -0.7630 -0.5544 -0.3324
vn -0.5220 -0.3793 0.7640
vn -0.0903 -0.0656 0.9938
vn -0.0903 -0.0656 -0.9938
vn -0.5220 -0.3793 -0.7640
vn -0.7630 -0.5544 0.3324
vn -0.2855 -0.2074 0.9357
vn -0.1994 -0.6137 0.7640
vn -0.0345 -0.1061 0.9938
vn -0.0345 -0.1061 -0.9938
vn -0.1994 -0.6137 -0.7640
vn -0.2914 -0.8970 0.3324
vn -0.1090 -0.3356 0.9357
vn -0.1090 -0.3356 -0.9357
vn -0.2914 -0.8970 -0.3324
vn 0.3094 0.2339 0.9217
vn 0.2860 0.2115 0.9346
vn 0.2923 -0.0001 0.9563
vn 0.2788 0.2492 0.9275
vn 0.3923 -0.0196 0.9196
vn -0.6208 -0.4509 -0.6414
vn -0.5571 -0.4793 -0.6781
vn -0.6187 -0.4892 -0.6148
vn -0.8320 -0.3077 -0.4615
vn -0.1763 -0.1673 -0.9700
vn 0.2009 0.1550 -0.9673
vn 0.2685 0.1620 -0.9496
vn -0.1712 -0.1210 -0.9778
vn 0.1437 0.1652 -0.9757
vn -0.1016 0.0050 -0.9948
vn -0.1495 -0.0332 -0.9882
vn 0.0130 0.0164 -0.9998
vn -0.0158 0.0127 -0.9998
vn -0.0149 -0.0024 -0.9999
vn -0.0088 0.0036 -1.0000
vn -0.1347 -0.0000 0.9909
vn 0.1327 -0.0233 0.9909
vn -0.1327 -0.0233 0.9909
vn 0.0232 -0.6500 0.7596
vn 0.1981 -0.5569 0.8066
vn -0.0232 -0.6500 0.7596
vn -0.1981 -0.5569 0.8066
usemtl Material
s off
f 82//1 81//1 6//1 7//1
f 80//2 122//2 4//2 5//2
f 121//3 120//3 2//3 3//3
f 79//4 84//4 1//4
f 83//5 82//5 7//5
f 81//6 80//6 5//6 6//6
f 122//7 121//7 3//7 4//7
f 120//8 79//8 1//8 2//8
f 83//9 7//9 14//9
f 6//10 5//10 12//10 13//10
f 4//11 3//11 10//11 11//11
f 2//12 1//12 8//12 9//12
f 7//13 6//13 13//13 14//13
f 5//14 4//14 11//14 12//14
f 3//15 2//15 9//15 10//15
f 1//16 84//16 8//16
f 11//17 10//17 17//17 18//17
f 9//18 8//18 15//18 16//18
f 14//19 13//19 20//19 21//19
f 12//20 11//20 18//20 19//20
f 10//21 9//21 16//21 17//21
f 8//22 84//22 15//22
f 83//23 14//23 21//23
f 13//24 12//24 19//24 20//24
f 21//25 20//25 27//25 28//25
f 19//26 18//26 25//26 26//26
f 17//27 16//27 23//27 24//27
f 15//28 84//28 22//28
f 83//29 21//29 28//29
f 20//30 19//30 26//30 27//30
f 18//31 17//31 24//31 25//31
f 16//32 15//32 22//32 23//32
f 24//33 23//33 114//33 115//33
f 22//34 84//34 113//34
f 83//35 28//35 119//35
f 27//36 26//36 117//36 118//36
f 25//37 24//37 115//37 116//37
f 23//38 22//38 113//38 114//38
f 28//39 27//39 118//39 119//39
f 26//40 25//40 116//40 117//40
f 34//41 39//41 40//41 35//41
f 41//42 36//42 35//42 40//42
f 29//43 37//43 36//43 41//43
f 29//44 38//44 37//44
f 29//45 30//45 38//45
f 31//46 37//46 38//46 30//46
f 32//47 36//47 37//47 31//47
f 33//48 35//48 36//48 32//48
f 35//49 33//49 34//49
f 40//50 39//50 47//50 48//50
f 33//51 32//51 45//51 46//51
f 31//52 30//52 43//52 44//52
f 41//53 40//53 48//53 49//53
f 32//54 31//54 44//54 45//54
f 30//55 29//55 42//55 43//55
f 29//56 41//56 49//56 42//56
f 48//57 47//57 50//57
f 45//58 44//58 50//58
f 43//58 42//58 50//58
f 49//58 48//58 50//58
f 46//59 45//59 50//59
f 44//58 43//58 50//58
f 42//58 49//58 50//58
f 46//60 50//60 47//60
f 66//61 72//61 65//61
f 63//61 72//61 62//61
f 70//61 72//61 69//61
f 67//61 72//61 66//61
f 64//61 72//61 63//61
f 71//61 72//61 70//61
f 68//61 72//61 67//61
f 65//61 72//61 64//61
f 62//61 72//61 71//61
f 69//61 72//61 68//61
f 82//62 91//62 90//62 81//62
f 80//63 89//63 88//63 122//63
f 121//64 87//64 86//64 120//64
f 79//65 85//65 84//65
f 83//66 91//66 82//66
f 81//67 90//67 89//67 80//67
f 122//68 88//68 87//68 121//68
f 120//69 86//69 85//69 79//69
f 83//70 98//70 91//70
f 90//71 97//71 96//71 89//71
f 88//72 95//72 94//72 87//72
f 86//73 93//73 92//73 85//73
f 91//74 98//74 97//74 90//74
f 89//75 96//75 95//75 88//75
f 87//76 94//76 93//76 86//76
f 85//77 92//77 84//77
f 95//78 102//78 101//78 94//78
f 93//79 100//79 99//79 92//79
f 98//80 105//80 104//80 97//80
f 96//81 103//81 102//81 95//81
f 94//82 101//82 100//82 93//82
f 92//83 99//83 84//83
f 83//84 105//84 98//84
f 97//85 104//85 103//85 96//85
f 105//86 112//86 111//86 104//86
f 103//87 110//87 109//87 102//87
f 101//88 108//88 107//88 100//88
f 99//89 106//89 84//89
f 83//90 112//90 105//90
f 104//91 111//91 110//91 103//91
f 102//92 109//92 108//92 101//92
f 100//93 107//93 106//93 99//93
f 108//94 115//94 114//94 107//94
f 106//95 113//95 84//95
f 83//96 119//96 112//96
f 111//97 118//97 117//97 110//97
f 109//98 116//98 115//98 108//98
f 107//99 114//99 113//99 106//99
f 112//100 119//100 118//100 111//100
f 110//101 117//101 116//101 109//101
f 128//102 129//102 134//102 133//102
f 135//103 134//103 129//103 130//103
f 123//104 135//104 130//104 131//104
f 123//105 131//105 132//105
f 123//106 132//106 124//106
f 125//107 124//107 132//107 131//107
f 126//108 125//108 131//108 130//108
f 127//109 126//109 130//109 129//109
f 129//110 128//110 127//110
f 134//111 142//111 141//111 133//111
f 127//112 140//112 139//112 126//112
f 125//113 138//113 137//113 124//113
f 135//114 143//114 142//114 134//114
f 126//115 139//115 138//115 125//115
f 124//116 137//116 136//116 123//116
f 123//117 136//117 143//117 135//117
f 142//118 144//118 141//118
f 139//119 144//119 138//119
f 137//119 144//119 136//119
f 143//119 144//119 142//119
f 140//120 144//120 139//120
f 138//119 144//119 137//119
f 136//119 144//119 143//119
f 140//121 141//121 144//121
f 160//122 159//122 166//122
f 157//122 156//122 166//122
f 164//122 163//122 166//122
f 161//122 160//122 166//122
f 158//122 157//122 166//122
f 165//122 164//122 166//122
f 162//122 161//122 166//122
f 159//122 158//122 166//122
f 156//122 165//122 166//122
f 163//122 162//122 166//122
usemtl Material.001
f 55//61 61//61 54//61
f 52//61 61//61 51//61
f 59//61 61//61 58//61
f 56//61 61//61 55//61
f 53//61 61//61 52//61
f 60//61 61//61 59//61
f 57//61 61//61 56//61
f 54//61 61//61 53//61
f 51//61 61//61 60//61
f 58//61 61//61 57//61
f 74//123 75//123 73//123
f 149//122 148//122 155//122
f 146//122 145//122 155//122
f 153//122 152//122 155//122
f 150//122 149//122 155//122
f 147//122 146//122 155//122
f 154//122 153//122 155//122
f 151//122 150//122 155//122
f 148//122 147//122 155//122
f 145//122 154//122 155//122
f 152//122 151//122 155//122
f 168//124 167//124 169//124
usemtl Material.002
f 78//125 77//125 173//125 174//125
f 78//126 76//126 77//126
f 172//127 174//127 173//127 171//127
f 172//128 171//128 170//128
