# Blender v2.79 (sub 0) OBJ File: ''
# www.blender.org
mtllib walltvbench.mtl
o walltvbench_Cube.028
v -1.000053 0.005009 -0.008224
v -1.000053 0.495009 -0.008224
v -1.000053 0.495010 -0.418224
v -1.000053 0.005010 -0.418224
v 0.999947 0.495010 -0.418224
v 0.999947 0.005010 -0.418224
v 0.982820 0.313125 -0.418224
v 0.982820 0.475455 -0.418224
v 0.999947 0.495009 -0.008224
v 0.999947 0.005009 -0.008224
v 0.982820 0.313124 -0.031276
v 0.982820 0.475455 -0.031276
v -0.982927 0.313125 -0.418224
v -0.982927 0.475455 -0.418224
v -0.982927 0.313124 -0.031276
v -0.982927 0.475455 -0.031276
vn -1.0000 -0.0000 0.0000
vn 0.0000 0.0000 -1.0000
vn 1.0000 -0.0000 0.0000
vn 0.0000 -0.0000 1.0000
vn 0.0000 -1.0000 -0.0000
vn 0.0000 1.0000 0.0000
usemtl Material.001
s 1
f 1//1 2//1 3//1 4//1
f 5//2 6//2 7//2 8//2
f 6//3 5//3 9//3 10//3
f 10//4 9//4 2//4 1//4
f 4//5 6//5 10//5 1//5
f 5//6 3//6 2//6 9//6
f 8//1 7//1 11//1 12//1
f 6//2 4//2 13//2 7//2
f 3//2 5//2 8//2 14//2
f 4//2 3//2 14//2 13//2
f 15//2 16//2 12//2 11//2
f 7//6 13//6 15//6 11//6
f 14//5 8//5 12//5 16//5
f 13//3 14//3 16//3 15//3
