# Blender v2.78 (sub 0) OBJ File: 'washer.blend'
# www.blender.org
mtllib washer.mtl
o Cube
v -0.300000 -0.420000 0.300000
v -0.300000 0.420000 0.300000
v -0.300000 -0.420000 -0.300000
v -0.300000 0.420000 -0.300000
v 0.300000 -0.420000 0.300000
v 0.300000 0.420000 0.300000
v 0.300000 -0.420000 -0.300000
v 0.300000 0.420000 -0.300000
v 0.000000 0.274830 0.312181
v -0.086297 0.259614 0.312181
v -0.162185 0.215799 0.312181
v -0.218512 0.148672 0.312181
v -0.248482 0.066328 0.312181
v -0.248482 -0.021300 0.312181
v -0.218512 -0.103644 0.312181
v -0.162185 -0.170771 0.312181
v -0.086297 -0.214585 0.312181
v 0.000000 -0.229802 0.312181
v 0.086297 -0.214585 0.312181
v 0.162185 -0.170771 0.312181
v 0.218512 -0.103644 0.312181
v 0.248483 -0.021300 0.312181
v 0.248483 0.066328 0.312181
v 0.218512 0.148672 0.312181
v 0.162186 0.215799 0.312181
v 0.086297 0.259614 0.312181
v 0.000000 0.208354 0.312181
v -0.063561 0.197147 0.312181
v -0.119456 0.164876 0.312181
v -0.160942 0.115434 0.312181
v -0.183017 0.054785 0.312181
v -0.183017 -0.009757 0.312181
v -0.160942 -0.070406 0.312181
v -0.119456 -0.119848 0.312181
v -0.063561 -0.152118 0.312181
v 0.000000 -0.163326 0.312181
v 0.063561 -0.152118 0.312181
v 0.119456 -0.119848 0.312181
v 0.160942 -0.070406 0.312181
v 0.183017 -0.009757 0.312181
v 0.183017 0.054785 0.312181
v 0.160942 0.115434 0.312181
v 0.119456 0.164876 0.312181
v 0.063561 0.197147 0.312181
v 0.000000 0.200263 0.273982
v -0.060794 0.189544 0.273982
v -0.114255 0.158678 0.273982
v -0.153935 0.111389 0.273982
v -0.175049 0.053380 0.273982
v -0.175049 -0.008352 0.273982
v -0.153935 -0.066360 0.273982
v -0.114255 -0.113650 0.273982
v -0.060794 -0.144515 0.273982
v 0.000000 -0.155235 0.273982
v 0.060794 -0.144515 0.273982
v 0.114255 -0.113650 0.273982
v 0.153935 -0.066360 0.273982
v 0.175049 -0.008352 0.273982
v 0.175049 0.053380 0.273982
v 0.153935 0.111389 0.273982
v 0.114255 0.158678 0.273982
v 0.060794 0.189544 0.273982
v 0.000000 0.022514 0.273982
v 0.165550 0.219808 0.298112
v 0.223044 0.151289 0.298112
v 0.253636 0.067237 0.298112
v 0.253636 -0.022209 0.298112
v 0.223044 -0.106260 0.298112
v 0.165549 -0.174780 0.298112
v 0.088087 -0.219503 0.298112
v 0.000000 -0.235035 0.298112
v -0.088087 -0.219503 0.298112
v -0.165549 -0.174780 0.298112
v -0.223044 -0.106260 0.298112
v -0.253636 -0.022209 0.298112
v -0.253636 0.067237 0.298112
v -0.223044 0.151289 0.298112
v -0.165549 0.219808 0.298112
v -0.088087 0.264531 0.298112
v 0.000000 0.280063 0.298112
v 0.088087 0.264531 0.298112
v 0.125983 0.326518 0.291635
v 0.125983 0.326518 0.312084
v 0.217573 0.326518 0.312084
v 0.217573 0.326518 0.291635
v 0.208026 0.328201 0.312084
v 0.208026 0.328201 0.291635
v 0.199631 0.333048 0.312084
v 0.199631 0.333048 0.291635
v 0.193400 0.340474 0.312084
v 0.193400 0.340474 0.291635
v 0.190085 0.349583 0.312084
v 0.190085 0.349583 0.291635
v 0.190085 0.359277 0.312084
v 0.190085 0.359277 0.291635
v 0.193400 0.368387 0.312084
v 0.193400 0.368386 0.291635
v 0.199631 0.375812 0.312084
v 0.199631 0.375812 0.291635
v 0.208026 0.380659 0.312084
v 0.208026 0.380659 0.291635
v 0.217573 0.382343 0.312084
v 0.217573 0.382343 0.291635
v 0.227119 0.380659 0.312084
v 0.227119 0.380659 0.291635
v 0.235515 0.375812 0.312084
v 0.235515 0.375812 0.291635
v 0.241746 0.368387 0.312084
v 0.241746 0.368386 0.291635
v 0.245061 0.359277 0.312084
v 0.245061 0.359277 0.291635
v 0.245061 0.349583 0.312084
v 0.245061 0.349583 0.291635
v 0.241746 0.340474 0.312084
v 0.241746 0.340474 0.291635
v 0.235515 0.333048 0.312084
v 0.235515 0.333048 0.291635
v 0.227119 0.328201 0.312084
v 0.227119 0.328201 0.291635
v 0.116437 0.328201 0.312084
v 0.116437 0.328201 0.291635
v 0.108041 0.333048 0.312084
v 0.108041 0.333048 0.291635
v 0.101810 0.340474 0.312084
v 0.101810 0.340474 0.291635
v 0.098495 0.349583 0.312084
v 0.098495 0.349583 0.291635
v 0.098495 0.359277 0.312084
v 0.098495 0.359277 0.291635
v 0.101810 0.368387 0.312084
v 0.101810 0.368386 0.291635
v 0.108041 0.375812 0.312084
v 0.108041 0.375812 0.291635
v 0.116437 0.380659 0.312084
v 0.116437 0.380659 0.291635
v 0.125983 0.382343 0.312084
v 0.125983 0.382343 0.291635
v 0.135530 0.380659 0.312084
v 0.135530 0.380659 0.291635
v 0.143925 0.375812 0.312084
v 0.143925 0.375812 0.291635
v 0.150156 0.368387 0.312084
v 0.150156 0.368386 0.291635
v 0.153471 0.359277 0.312084
v 0.153471 0.359277 0.291635
v 0.153471 0.349583 0.312084
v 0.153471 0.349583 0.291635
v 0.150156 0.340474 0.312084
v 0.150156 0.340474 0.291635
v 0.143925 0.333048 0.312084
v 0.143925 0.333048 0.291635
v 0.135530 0.328201 0.312084
v 0.135530 0.328201 0.291635
v 0.030658 0.326518 0.291635
v 0.030658 0.326518 0.312084
v 0.021111 0.328201 0.312084
v 0.021111 0.328201 0.291635
v 0.012716 0.333048 0.312084
v 0.012716 0.333048 0.291635
v 0.006485 0.340474 0.312084
v 0.006485 0.340474 0.291635
v 0.003169 0.349583 0.312084
v 0.003169 0.349583 0.291635
v 0.003169 0.359277 0.312084
v 0.003169 0.359277 0.291635
v 0.006485 0.368387 0.312084
v 0.006485 0.368386 0.291635
v 0.012716 0.375812 0.312084
v 0.012716 0.375812 0.291635
v 0.021111 0.380659 0.312084
v 0.021111 0.380659 0.291635
v 0.030658 0.382343 0.312084
v 0.030658 0.382343 0.291635
v 0.040204 0.380659 0.312084
v 0.040204 0.380659 0.291635
v 0.048599 0.375812 0.312084
v 0.048599 0.375812 0.291635
v 0.054830 0.368387 0.312084
v 0.054830 0.368386 0.291635
v 0.058146 0.359277 0.312084
v 0.058146 0.359277 0.291635
v 0.058146 0.349583 0.312084
v 0.058146 0.349583 0.291635
v 0.054830 0.340474 0.312084
v 0.054830 0.340474 0.291635
v 0.048599 0.333048 0.312084
v 0.048599 0.333048 0.291635
v 0.040204 0.328201 0.312084
v 0.040204 0.328201 0.291635
v 0.030658 0.354430 0.312084
v 0.030658 0.354430 0.291635
v 0.125983 0.354430 0.312084
v 0.125983 0.354430 0.291635
v 0.217573 0.354430 0.312084
v 0.217573 0.354430 0.291635
v -0.300000 -0.157341 0.300000
v -0.300000 0.207752 0.300000
v -0.300000 0.207752 -0.300000
v -0.300000 -0.157341 -0.300000
v 0.300000 0.207752 -0.300000
v 0.300000 -0.157341 -0.300000
v 0.300000 0.207752 0.300000
v 0.300000 -0.157341 0.300000
v 0.174460 -0.420000 -0.300000
v 0.000000 -0.420000 -0.300000
v -0.177277 -0.420000 -0.300000
v -0.177277 0.420000 -0.300000
v 0.000000 0.420000 -0.300000
v 0.174460 0.420000 -0.300000
v -0.177277 -0.420000 0.300000
v 0.000000 -0.420000 0.300000
v 0.174460 -0.420000 0.300000
v 0.174460 0.420000 0.300000
v 0.000000 0.420000 0.300000
v -0.177277 0.420000 0.300000
v 0.174460 -0.157341 0.300000
v 0.000000 -0.157341 0.300000
v -0.177277 -0.157341 0.300000
v 0.174460 0.207752 0.300000
v 0.000000 0.207752 0.300000
v -0.177277 0.207752 0.300000
v -0.177277 -0.157341 -0.300000
v 0.000000 -0.157341 -0.300000
v 0.174460 -0.157341 -0.300000
v -0.177277 0.207752 -0.300000
v 0.000000 0.207752 -0.300000
v 0.174460 0.207752 -0.300000
v -0.300000 0.031573 0.300000
v -0.300000 0.031573 -0.300000
v 0.300000 0.031573 -0.300000
v 0.300000 0.031573 0.300000
v -0.177277 0.031573 -0.300000
v 0.000000 0.031573 -0.300000
v 0.174460 0.031573 -0.300000
v 0.174460 0.031573 0.300000
v -0.177277 0.031573 0.300000
v 0.174460 -0.157341 0.191321
v 0.000000 -0.157341 0.191321
v -0.177277 -0.157341 0.191321
v 0.174460 0.207752 0.191321
v 0.000000 0.207752 0.191321
v -0.177277 0.207752 0.191321
v 0.174460 0.031573 0.191321
v 0.000000 0.031573 0.191321
v -0.177277 0.031573 0.191321
vn -1.0000 0.0000 0.0000
vn 0.0000 0.0000 -1.0000
vn 1.0000 0.0000 0.0000
vn 0.0000 0.0000 1.0000
vn 0.0000 -1.0000 0.0000
vn 0.0000 1.0000 0.0000
vn -0.9199 0.3348 0.2042
vn 0.9199 0.3348 0.2042
vn -0.9789 0.0000 0.2042
vn 0.7499 0.6292 0.2042
vn -0.9199 -0.3348 0.2042
vn 0.4895 0.8478 0.2042
vn 0.1700 -0.9641 0.2042
vn -0.7499 -0.6292 0.2042
vn 0.1700 0.9641 0.2042
vn 0.4895 -0.8478 0.2042
vn -0.4895 -0.8478 0.2042
vn -0.1700 0.9641 0.2042
vn 0.7499 -0.6292 0.2042
vn -0.1700 -0.9641 0.2042
vn -0.4895 0.8478 0.2042
vn 0.9199 -0.3348 0.2042
vn -0.7499 0.6292 0.2042
vn 0.9789 0.0000 0.2042
vn 0.7193 0.6036 0.3440
vn -0.1631 -0.9247 0.3440
vn -0.4695 0.8132 0.3440
vn 0.4695 0.8132 0.3440
vn 0.1631 -0.9247 0.3440
vn -0.7193 0.6036 0.3440
vn 0.1631 0.9247 0.3440
vn 0.4695 -0.8132 0.3440
vn -0.8824 0.3211 0.3440
vn 0.7193 -0.6036 0.3440
vn -0.9390 -0.0000 0.3440
vn 0.8824 -0.3212 0.3440
vn -0.8824 -0.3212 0.3440
vn 0.9390 -0.0000 0.3440
vn -0.7193 -0.6036 0.3440
vn 0.8824 0.3211 0.3440
vn -0.4695 -0.8132 0.3440
vn -0.1631 0.9247 0.3440
vn -0.9397 -0.3420 0.0000
vn -0.1736 -0.9848 0.0000
vn 0.7660 -0.6428 0.0000
vn -0.5000 -0.8660 0.0000
vn -0.9397 0.3420 0.0000
vn 0.9397 -0.3420 0.0000
vn -0.7660 -0.6428 0.0000
vn -0.7660 0.6428 0.0000
vn -0.5000 0.8660 0.0000
vn 0.9397 0.3420 0.0000
vn -0.1736 0.9848 0.0000
vn 0.7660 0.6428 0.0000
vn 0.1736 0.9848 0.0000
vn 0.5000 0.8660 0.0000
vn 0.1736 -0.9848 0.0000
vn 0.5000 -0.8660 0.0000
usemtl None
s off
f 197//1 2//1 4//1 198//1
f 227//2 209//2 8//2 200//2
f 200//3 8//3 6//3 202//3
f 221//4 215//4 2//4 197//4
f 204//5 7//5 5//5 212//5
f 207//6 4//6 2//6 215//6
f 25//4 43//4 42//4 24//4
f 18//4 36//4 35//4 17//4
f 11//4 29//4 28//4 10//4
f 26//4 44//4 43//4 25//4
f 19//4 37//4 36//4 18//4
f 12//4 30//4 29//4 11//4
f 9//4 27//4 44//4 26//4
f 20//4 38//4 37//4 19//4
f 13//4 31//4 30//4 12//4
f 21//4 39//4 38//4 20//4
f 14//4 32//4 31//4 13//4
f 22//4 40//4 39//4 21//4
f 15//4 33//4 32//4 14//4
f 23//4 41//4 40//4 22//4
f 16//4 34//4 33//4 15//4
f 24//4 42//4 41//4 23//4
f 17//4 35//4 34//4 16//4
f 10//4 28//4 27//4 9//4
f 40//7 58//7 57//7 39//7
f 33//8 51//8 50//8 32//8
f 41//9 59//9 58//9 40//9
f 34//10 52//10 51//10 33//10
f 42//11 60//11 59//11 41//11
f 35//12 53//12 52//12 34//12
f 28//13 46//13 45//13 27//13
f 43//14 61//14 60//14 42//14
f 36//15 54//15 53//15 35//15
f 29//16 47//16 46//16 28//16
f 44//17 62//17 61//17 43//17
f 37//18 55//18 54//18 36//18
f 30//19 48//19 47//19 29//19
f 27//20 45//20 62//20 44//20
f 38//21 56//21 55//21 37//21
f 31//22 49//22 48//22 30//22
f 39//23 57//23 56//23 38//23
f 32//24 50//24 49//24 31//24
f 59//4 63//4 58//4
f 52//4 63//4 51//4
f 60//4 63//4 59//4
f 53//4 63//4 52//4
f 46//4 63//4 45//4
f 61//4 63//4 60//4
f 54//4 63//4 53//4
f 47//4 63//4 46//4
f 62//4 63//4 61//4
f 55//4 63//4 54//4
f 48//4 63//4 47//4
f 45//4 63//4 62//4
f 56//4 63//4 55//4
f 49//4 63//4 48//4
f 57//4 63//4 56//4
f 50//4 63//4 49//4
f 58//4 63//4 57//4
f 51//4 63//4 50//4
f 24//25 65//25 64//25 25//25
f 17//26 72//26 71//26 18//26
f 10//27 79//27 78//27 11//27
f 25//28 64//28 81//28 26//28
f 18//29 71//29 70//29 19//29
f 11//30 78//30 77//30 12//30
f 26//31 81//31 80//31 9//31
f 19//32 70//32 69//32 20//32
f 12//33 77//33 76//33 13//33
f 20//34 69//34 68//34 21//34
f 13//35 76//35 75//35 14//35
f 21//36 68//36 67//36 22//36
f 14//37 75//37 74//37 15//37
f 22//38 67//38 66//38 23//38
f 15//39 74//39 73//39 16//39
f 23//40 66//40 65//40 24//40
f 16//41 73//41 72//41 17//41
f 9//42 80//42 79//42 10//42
f 160//43 162//43 163//43 161//43
f 84//44 86//44 87//44 85//44
f 148//45 150//45 151//45 149//45
f 86//46 88//46 89//46 87//46
f 164//47 166//47 167//47 165//47
f 146//48 148//48 149//48 147//48
f 88//49 90//49 91//49 89//49
f 166//50 168//50 169//50 167//50
f 144//3 146//3 147//3 145//3
f 90//43 92//43 93//43 91//43
f 168//51 170//51 171//51 169//51
f 142//52 144//52 145//52 143//52
f 92//1 94//1 95//1 93//1
f 170//53 172//53 173//53 171//53
f 140//54 142//54 143//54 141//54
f 94//47 96//47 97//47 95//47
f 172//55 174//55 175//55 173//55
f 138//56 140//56 141//56 139//56
f 96//50 98//50 99//50 97//50
f 174//56 176//56 177//56 175//56
f 136//55 138//55 139//55 137//55
f 98//51 100//51 101//51 99//51
f 176//54 178//54 179//54 177//54
f 134//53 136//53 137//53 135//53
f 100//53 102//53 103//53 101//53
f 178//52 180//52 181//52 179//52
f 132//51 134//51 135//51 133//51
f 102//55 104//55 105//55 103//55
f 180//3 182//3 183//3 181//3
f 130//50 132//50 133//50 131//50
f 104//56 106//56 107//56 105//56
f 182//48 184//48 185//48 183//48
f 128//47 130//47 131//47 129//47
f 106//54 108//54 109//54 107//54
f 184//45 186//45 187//45 185//45
f 126//1 128//1 129//1 127//1
f 108//52 110//52 111//52 109//52
f 124//43 126//43 127//43 125//43
f 110//3 112//3 113//3 111//3
f 122//49 124//49 125//49 123//49
f 112//48 114//48 115//48 113//48
f 152//57 83//57 82//57 153//57
f 120//46 122//46 123//46 121//46
f 114//45 116//45 117//45 115//45
f 83//44 120//44 121//44 82//44
f 116//58 118//58 119//58 117//58
f 162//1 164//1 165//1 163//1
f 150//58 152//58 153//58 151//58
f 118//57 84//57 85//57 119//57
f 158//49 160//49 161//49 159//49
f 188//57 155//57 154//57 189//57
f 156//46 158//46 159//46 157//46
f 155//44 156//44 157//44 154//44
f 186//58 188//58 189//58 187//58
f 180//4 178//4 190//4
f 155//4 188//4 190//4
f 162//4 160//4 190//4
f 176//4 174//4 190//4
f 178//4 176//4 190//4
f 186//4 184//4 190//4
f 164//4 162//4 190//4
f 168//4 166//4 190//4
f 182//4 180//4 190//4
f 166//4 164//4 190//4
f 170//4 168//4 190//4
f 188//4 186//4 190//4
f 158//4 156//4 190//4
f 172//4 170//4 190//4
f 156//4 155//4 190//4
f 184//4 182//4 190//4
f 160//4 158//4 190//4
f 174//4 172//4 190//4
f 177//2 179//2 191//2
f 167//2 169//2 191//2
f 179//2 181//2 191//2
f 189//2 154//2 191//2
f 169//2 171//2 191//2
f 165//2 167//2 191//2
f 185//2 187//2 191//2
f 157//2 159//2 191//2
f 171//2 173//2 191//2
f 154//2 157//2 191//2
f 181//2 183//2 191//2
f 159//2 161//2 191//2
f 173//2 175//2 191//2
f 187//2 189//2 191//2
f 161//2 163//2 191//2
f 175//2 177//2 191//2
f 183//2 185//2 191//2
f 163//2 165//2 191//2
f 146//4 144//4 192//4
f 128//4 126//4 192//4
f 126//4 124//4 192//4
f 124//4 122//4 192//4
f 122//4 120//4 192//4
f 152//4 150//4 192//4
f 148//4 146//4 192//4
f 142//4 140//4 192//4
f 144//4 142//4 192//4
f 83//4 152//4 192//4
f 140//4 138//4 192//4
f 138//4 136//4 192//4
f 136//4 134//4 192//4
f 120//4 83//4 192//4
f 150//4 148//4 192//4
f 134//4 132//4 192//4
f 130//4 128//4 192//4
f 132//4 130//4 192//4
f 149//2 151//2 193//2
f 139//2 141//2 193//2
f 137//2 139//2 193//2
f 135//2 137//2 193//2
f 82//2 121//2 193//2
f 145//2 147//2 193//2
f 133//2 135//2 193//2
f 131//2 133//2 193//2
f 141//2 143//2 193//2
f 127//2 129//2 193//2
f 151//2 153//2 193//2
f 125//2 127//2 193//2
f 123//2 125//2 193//2
f 121//2 123//2 193//2
f 147//2 149//2 193//2
f 129//2 131//2 193//2
f 143//2 145//2 193//2
f 153//2 82//2 193//2
f 98//4 96//4 194//4
f 104//4 102//4 194//4
f 110//4 108//4 194//4
f 116//4 114//4 194//4
f 84//4 118//4 194//4
f 90//4 88//4 194//4
f 96//4 94//4 194//4
f 102//4 100//4 194//4
f 108//4 106//4 194//4
f 114//4 112//4 194//4
f 88//4 86//4 194//4
f 94//4 92//4 194//4
f 86//4 84//4 194//4
f 100//4 98//4 194//4
f 106//4 104//4 194//4
f 112//4 110//4 194//4
f 118//4 116//4 194//4
f 92//4 90//4 194//4
f 111//2 113//2 195//2
f 117//2 119//2 195//2
f 85//2 87//2 195//2
f 91//2 93//2 195//2
f 97//2 99//2 195//2
f 103//2 105//2 195//2
f 109//2 111//2 195//2
f 115//2 117//2 195//2
f 119//2 85//2 195//2
f 89//2 91//2 195//2
f 95//2 97//2 195//2
f 101//2 103//2 195//2
f 107//2 109//2 195//2
f 113//2 115//2 195//2
f 87//2 89//2 195//2
f 93//2 95//2 195//2
f 99//2 101//2 195//2
f 105//2 107//2 195//2
f 210//4 218//4 196//4 1//4
f 236//4 221//4 197//4 228//4
f 7//3 201//3 203//3 5//3
f 230//3 200//3 202//3 231//3
f 204//2 224//2 201//2 7//2
f 234//2 227//2 200//2 230//2
f 1//1 196//1 199//1 3//1
f 228//1 197//1 198//1 229//1
f 229//2 198//2 225//2 232//2
f 232//2 225//2 226//2 233//2
f 233//2 226//2 227//2 234//2
f 3//2 199//2 222//2 206//2
f 206//2 222//2 223//2 205//2
f 205//2 223//2 224//2 204//2
f 231//4 202//4 219//4 235//4
f 235//1 219//1 240//1 243//1
f 217//6 216//6 237//6 238//6
f 5//4 203//4 216//4 212//4
f 212//4 216//4 217//4 211//4
f 211//4 217//4 218//4 210//4
f 8//6 209//6 213//6 6//6
f 209//6 208//6 214//6 213//6
f 208//6 207//6 215//6 214//6
f 3//5 206//5 210//5 1//5
f 206//5 205//5 211//5 210//5
f 205//5 204//5 212//5 211//5
f 202//4 6//4 213//4 219//4
f 219//4 213//4 214//4 220//4
f 220//4 214//4 215//4 221//4
f 198//2 4//2 207//2 225//2
f 225//2 207//2 208//2 226//2
f 226//2 208//2 209//2 227//2
f 221//3 236//3 245//3 242//3
f 220//5 221//5 242//5 241//5
f 203//4 231//4 235//4 216//4
f 223//2 233//2 234//2 224//2
f 222//2 232//2 233//2 223//2
f 199//2 229//2 232//2 222//2
f 196//1 228//1 229//1 199//1
f 224//2 234//2 230//2 201//2
f 201//3 230//3 231//3 203//3
f 218//4 236//4 228//4 196//4
f 243//4 240//4 241//4 244//4
f 244//4 241//4 242//4 245//4
f 238//4 244//4 245//4 239//4
f 237//4 243//4 244//4 238//4
f 219//5 220//5 241//5 240//5
f 218//6 217//6 238//6 239//6
f 236//3 218//3 239//3 245//3
f 216//1 235//1 243//1 237//1
